<?xml version="1.0" standalone="no"?>
<!DOCTYPE svg PUBLIC "-//W3C//DTD SVG 20010904//EN"
 "http://www.w3.org/TR/2001/REC-SVG-20010904/DTD/svg10.dtd">
<svg version="1.0" xmlns="http://www.w3.org/2000/svg"
 width="980.000000pt" height="700.000000pt" viewBox="0 0 980.000000 700.000000"
 preserveAspectRatio="xMidYMid meet">

<g transform="translate(0.000000,700.000000) scale(0.100000,-0.100000)"
fill="#000000" stroke="none">
<path d="M581 6989 c-63 -12 -138 -38 -196 -67 l-49 -24 79 -77 c1052 -1007
4375 -4161 4398 -4173 41 -23 131 -23 174 0 35 19 4473 4230 4473 4244 0 17
-143 76 -222 92 -70 14 -481 16 -4345 15 -2367 -1 -4288 -5 -4312 -10z"/>
<path d="M71 6603 c-10 -21 -30 -72 -42 -113 l-24 -75 0 -2910 c0 -2771 1
-2913 18 -2980 27 -106 27 -106 89 -55 346 291 3403 2905 3403 2910 0 7 -3333
3184 -3396 3237 l-28 24 -20 -38z"/>
<path d="M7992 5008 c-940 -893 -1711 -1626 -1713 -1629 -5 -9 3430 -2974
3444 -2974 7 0 25 38 42 85 l30 85 3 2885 c2 2061 0 2903 -8 2949 -13 72 -67
221 -80 221 -5 0 -778 -730 -1718 -1622z"/>
<path d="M2030 1647 c-960 -819 -1745 -1494 -1745 -1499 0 -18 127 -88 210
-116 l80 -27 4290 -3 c4815 -3 4371 -10 4544 74 90 45 93 47 75 64 -11 10
-795 687 -1743 1505 l-1723 1487 -37 -35 c-402 -386 -747 -707 -788 -733 -172
-112 -414 -112 -586 0 -29 19 -217 191 -418 382 -202 192 -377 358 -390 370
l-24 21 -1745 -1490z"/>
</g>
</svg>
