<?xml version="1.0" standalone="no"?>
<!DOCTYPE svg PUBLIC "-//W3C//DTD SVG 20010904//EN"
 "http://www.w3.org/TR/2001/REC-SVG-20010904/DTD/svg10.dtd">
<svg version="1.0" xmlns="http://www.w3.org/2000/svg"
 width="25.000000pt" height="25.000000pt" viewBox="0 0 25.000000 25.000000"
 preserveAspectRatio="xMidYMid meet">

<g transform="translate(0.000000,25.000000) scale(0.100000,-0.100000)"
fill="#000000" stroke="none">
<path d="M31 224 c-38 -48 -20 -105 52 -171 38 -35 54 -43 85 -43 27 0 45 7
58 21 19 21 18 21 -5 40 -26 21 -47 24 -56 9 -12 -19 -43 -10 -69 21 -31 36
-32 46 -9 71 16 17 16 22 3 45 -21 37 -34 38 -59 7z"/>
</g>
</svg>
