<svg width="40" height="34" viewBox="0 0 40 34" fill="none" xmlns="http://www.w3.org/2000/svg">
<path d="M17.0545 25.4122H7.4768C7.15313 25.4122 6.89086 25.6745 6.89086 25.9982C6.89086 26.3218 7.15313 26.5841 7.4768 26.5841H17.0545C17.3781 26.5841 17.6404 26.3218 17.6404 25.9982C17.6404 25.6745 17.378 25.4122 17.0545 25.4122ZM17.0545 21.8966H7.4768C7.15313 21.8966 6.89086 22.1589 6.89086 22.4825C6.89086 22.8062 7.15313 23.0685 7.4768 23.0685H17.0545C17.3781 23.0685 17.6404 22.8062 17.6404 22.4825C17.6404 22.1589 17.378 21.8966 17.0545 21.8966ZM32.5232 11.3497H22.9455C22.6219 11.3497 22.3596 11.612 22.3596 11.9357C22.3596 12.2593 22.6219 12.5216 22.9455 12.5216H32.5232C32.8469 12.5216 33.1091 12.2593 33.1091 11.9357C33.1091 11.612 32.8468 11.3497 32.5232 11.3497ZM38.2422 10.1509H36.0547V8.30026C36.0547 7.67565 35.5465 7.16745 34.9219 7.16745H23.9062C22.234 7.16745 20.7733 8.08659 20 9.4455C19.2267 8.08651 17.766 7.16745 16.0938 7.16745H5.07812C4.45352 7.16745 3.94531 7.67565 3.94531 8.30026V10.1509H1.75781C0.788594 10.1509 0 10.9395 0 11.9087V32.0501C0 33.0193 0.788594 33.8079 1.75781 33.8079H38.2422C39.2114 33.8079 40 33.0193 40 32.0501V11.9087C40 10.9395 39.2114 10.1509 38.2422 10.1509ZM1.75781 32.636C1.43469 32.636 1.17188 32.3732 1.17188 32.0501V11.9087C1.17188 11.5856 1.43469 11.3228 1.75781 11.3228H3.94531V29.1596C3.94531 29.7842 4.45352 30.2924 5.07812 30.2924H14.5951C16.3816 30.2924 18.0284 31.1885 19.0074 32.636H1.75781ZM19.4141 31.2597C18.2021 29.9214 16.4609 29.1205 14.5951 29.1205H5.11719V8.33925H16.0938C17.9246 8.33925 19.4141 9.8287 19.4141 11.6596V31.2597ZM38.8281 32.0501C38.8281 32.3732 38.5653 32.636 38.2422 32.636H20.9925C21.9715 31.1885 23.6184 30.2924 25.4048 30.2924H34.9219C35.5465 30.2924 36.0547 29.7842 36.0547 29.1596V24.0028C36.0547 23.6791 35.7924 23.4168 35.4688 23.4168C35.1451 23.4168 34.8828 23.6791 34.8828 24.0028V29.1206H25.4049C23.5391 29.1206 21.7979 29.9214 20.5859 31.2598V11.6596C20.5859 9.82878 22.0754 8.33933 23.9062 8.33933H34.8828V21.2684C34.8828 21.5921 35.1451 21.8543 35.4688 21.8543C35.7924 21.8543 36.0547 21.5921 36.0547 21.2684V11.3228H38.2422C38.5653 11.3228 38.8281 11.5856 38.8281 11.9087V32.0501ZM4.55734 3.4894L6.34305 4.873C6.40914 4.9069 6.4682 4.9869 6.7018 4.99573H13.2253C13.549 4.99573 13.8112 4.73347 13.8112 4.40979C13.8112 4.08612 13.549 3.82386 13.2253 3.82386H7.75391C7.8657 3.55198 7.95289 3.23628 7.98375 2.8798C8.03516 2.28769 7.91328 1.77347 7.74367 1.36401H31.1942V3.82386H15.9597C15.636 3.82386 15.3737 4.08612 15.3737 4.40979C15.3737 4.73347 15.636 4.99573 15.9597 4.99573H34.5145C35.2683 4.99573 35.8816 4.38237 35.8816 3.62854V1.55933C35.8816 0.805498 35.2683 0.192139 34.5145 0.192139H6.70195C6.63789 0.217061 6.64328 0.137529 6.34305 0.314873L4.55742 1.69847C4.27844 1.91464 4.11836 2.24097 4.11836 2.59401C4.11836 2.94706 4.27844 3.27339 4.55734 3.4894ZM32.366 1.36401H34.5145C34.6222 1.36401 34.7098 1.45159 34.7098 1.55933V3.62854C34.7098 3.73628 34.6222 3.82386 34.5145 3.82386H32.366V1.36401ZM6.57328 1.61901C6.72398 1.90636 6.85734 2.30503 6.81625 2.77862C6.78883 3.09464 6.69133 3.3612 6.57852 3.573L5.31492 2.59401L6.57328 1.61901ZM17.0545 18.381H7.4768C7.15313 18.381 6.89086 18.6432 6.89086 18.9669C6.89086 19.2906 7.15313 19.5528 7.4768 19.5528H17.0545C17.3781 19.5528 17.6404 19.2906 17.6404 18.9669C17.6404 18.6432 17.378 18.381 17.0545 18.381ZM32.5232 25.4122H22.9455C22.6219 25.4122 22.3596 25.6745 22.3596 25.9982C22.3596 26.3218 22.6219 26.5841 22.9455 26.5841H32.5232C32.8469 26.5841 33.1091 26.3218 33.1091 25.9982C33.1091 25.6745 32.8468 25.4122 32.5232 25.4122ZM32.5232 21.8966H22.9455C22.6219 21.8966 22.3596 22.1589 22.3596 22.4825C22.3596 22.8062 22.6219 23.0685 22.9455 23.0685H32.5232C32.8469 23.0685 33.1091 22.8062 33.1091 22.4825C33.1091 22.1589 32.8468 21.8966 32.5232 21.8966ZM32.5232 14.8653H22.9455C22.6219 14.8653 22.3596 15.1276 22.3596 15.4513C22.3596 15.775 22.6219 16.0372 22.9455 16.0372H32.5232C32.8469 16.0372 33.1091 15.775 33.1091 15.4513C33.1091 15.1276 32.8468 14.8653 32.5232 14.8653ZM17.0545 14.8653H7.4768C7.15313 14.8653 6.89086 15.1276 6.89086 15.4513C6.89086 15.775 7.15313 16.0372 7.4768 16.0372H17.0545C17.3781 16.0372 17.6404 15.775 17.6404 15.4513C17.6404 15.1276 17.378 14.8653 17.0545 14.8653ZM17.0545 11.3497H7.4768C7.15313 11.3497 6.89086 11.612 6.89086 11.9357C6.89086 12.2593 7.15313 12.5216 7.4768 12.5216H17.0545C17.3781 12.5216 17.6404 12.2593 17.6404 11.9357C17.6404 11.612 17.378 11.3497 17.0545 11.3497ZM32.5232 18.381H22.9455C22.6219 18.381 22.3596 18.6432 22.3596 18.9669C22.3596 19.2906 22.6219 19.5528 22.9455 19.5528H32.5232C32.8469 19.5528 33.1091 19.2906 33.1091 18.9669C33.1091 18.6432 32.8468 18.381 32.5232 18.381Z" fill="#28478A"/>
</svg>
