<svg width="40" height="40" viewBox="0 0 40 40" fill="none" xmlns="http://www.w3.org/2000/svg">
<path d="M34.9978 0V1.41859L30.5045 1.40992L30.5066 2.5818L34.9977 2.59047V11.5741L34.0094 11.5813L30.6654 13.047C28.875 13.7576 26.8335 13.3413 25.4624 11.985L25.1905 11.7159L21.3658 13.2298C20.8852 13.4202 20.3383 13.2018 20.1205 12.7329L19.4983 11.392L26.1735 8.58063L25.7187 7.50063L22.1407 9.00758C21.0512 7.25125 19.3088 6.02922 17.3266 5.58703L20.7366 2.59953L29.3348 2.58391L29.3327 1.41203L20.295 1.42844L15.7562 5.40484C15.7261 5.40445 15.6961 5.40328 15.666 5.40328C11.4659 5.40328 8.04883 8.82031 8.04883 13.0205C8.04883 13.5797 8.10984 14.1379 8.23016 14.6795L9.37414 14.4253C9.27234 13.967 9.2207 13.4944 9.2207 13.0205C9.2207 9.46648 12.1121 6.57516 15.666 6.57516C17.844 6.57516 19.8569 7.67141 21.0448 9.46906L17.924 10.7834L19.0576 13.2262C19.5364 14.2579 20.7398 14.7378 21.7971 14.3195L21.9964 14.2405C21.4274 17.2358 18.8071 19.4658 15.6659 19.4658C13.0373 19.4658 10.695 17.894 9.69875 15.4616L8.6143 15.9057C9.79156 18.7803 12.5595 20.6377 15.6659 20.6377C19.6248 20.6377 22.8841 17.6402 23.2492 13.7447L24.9228 13.0822C26.035 14.0495 27.4448 14.5611 28.8774 14.5611C29.6279 14.5611 30.3849 14.4207 31.1086 14.1319L34.2589 12.7514L34.9977 12.7461V16.3966H39.9586V0L34.9978 0ZM38.7869 15.2246H36.1697V1.17188H38.7869V15.2246Z" fill="#28478A"/>
<path d="M15.0385 8.41495V9.19323C14.9976 9.2037 14.9564 9.21487 14.9147 9.22745C14.2067 9.44065 13.678 10.0452 13.5348 10.805C13.4035 11.5017 13.6294 12.1757 14.1244 12.5639C14.5458 12.8943 15.1322 13.1757 16.1491 13.5352C16.8968 13.7995 16.8801 14.4071 16.8383 14.6561C16.7551 15.1514 16.3385 15.6867 15.6205 15.6915C14.9558 15.6963 14.7311 15.6601 14.2122 15.3206L13.5707 16.3013C14.1447 16.6767 14.5482 16.8062 15.0385 16.8467V17.626H16.2104V16.7914C17.2111 16.5432 17.8527 15.6908 17.994 14.8503C18.1777 13.7574 17.6069 12.8075 16.5397 12.4302C15.9215 12.2117 15.2369 11.9471 14.8476 11.6417C14.7005 11.5263 14.6373 11.2831 14.6865 11.0219C14.735 10.7646 14.9092 10.4528 15.2527 10.3494C16.0452 10.1109 16.5578 10.546 16.5792 10.5646L16.5732 10.5591L17.3677 9.69769C17.3411 9.67315 16.9133 9.28761 16.2104 9.15198V8.41479H15.0385V8.41495Z" fill="#28478A"/>
<path d="M30.9577 26.5972L29.4727 27.5L29.4766 27.4873C29.9265 26.3563 29.4172 25.0783 28.3085 24.5679C27.1877 24.0521 25.873 24.5101 25.3153 25.6106L22.4812 31.6037L17.5291 29.8704L23.3354 27.4097L22.5637 25.2737L22.5568 25.2555C21.9934 23.8441 20.3887 23.1529 18.9766 23.7119L15.5208 24.9908C13.9324 23.5777 11.4559 22.6131 9.22219 23.5045C8.03563 23.9781 7.02938 24.8029 6.35602 25.8465H5.00195V23.6035H0.0410156V40H5.00195V37.1894H8.53L23.2239 38.7749L28.8484 34.1757L28.1065 33.2685L22.8618 37.5572L8.62438 36.021L8.59305 36.0176H5.00195V27.0184H7.02906L7.19703 26.7198C7.73297 25.7674 8.60641 25.0121 9.65641 24.5929C11.5316 23.8447 13.6775 24.8019 14.9723 26.0826L15.2376 26.3451L19.3897 24.8086L19.4036 24.8033C20.2145 24.4796 21.1372 24.8737 21.4649 25.6818L21.8559 26.764L13.8957 30.0979L14.3326 31.1854L15.9184 30.5483L22.7698 32.9464L31.5451 27.6112C32.066 27.3183 32.7195 27.4851 33.0356 27.9933C33.3522 28.5019 33.2121 29.1644 32.7169 29.5014L32.6956 29.5159L29.0241 32.5182L29.766 33.4254L33.399 30.4546C34.3971 29.7579 34.6755 28.4105 34.0307 27.3742C33.3788 26.3265 32.029 25.9854 30.9577 26.5972ZM3.83008 38.8281H1.21289V24.7754H3.83008V38.8281ZM26.3638 26.134C26.6373 25.6026 27.2748 25.3822 27.8185 25.6324C28.3627 25.8829 28.6105 26.513 28.3826 27.067L27.958 28.4208L24.203 30.7037L26.3638 26.134Z" fill="#28478A"/>
</svg>
