<svg width="40" height="36" viewBox="0 0 40 36" fill="none" xmlns="http://www.w3.org/2000/svg">
<path d="M11.4195 11.7003H2.94211C2.61695 11.7003 2.35352 11.9638 2.35352 12.2889V32.7896C2.35352 33.1147 2.61703 33.3782 2.94211 33.3782H37.0585C37.3837 33.3782 37.6471 33.1147 37.6471 32.7896V12.2889C37.6471 11.9638 37.3836 11.7003 37.0585 11.7003H13.7741C13.4489 11.7003 13.1855 11.9638 13.1855 12.2889C13.1855 12.614 13.449 12.8775 13.7741 12.8775H36.4699V32.2009H3.5307V12.8775H11.4195C11.7447 12.8775 12.0081 12.614 12.0081 12.2889C12.0082 11.9638 11.7447 11.7003 11.4195 11.7003Z" fill="#28478A"/>
<path d="M37.8417 9.35268H35.2504L22.4083 3.00972C22.4375 2.86409 22.453 2.71362 22.453 2.55956C22.453 1.2994 21.4279 0.27417 20.1677 0.27417C18.9076 0.27417 17.8823 1.2994 17.8823 2.55956C17.8823 2.71362 17.8979 2.86417 17.9271 3.00972L5.085 9.35268H2.15828C0.968203 9.35268 0 10.3209 0 11.511V33.5676C0 34.7577 0.968203 35.7259 2.15828 35.7259H27.2238C27.5489 35.7259 27.8124 35.4624 27.8124 35.1373C27.8124 34.8122 27.5489 34.5487 27.2238 34.5487H2.15828C1.61734 34.5487 1.17727 34.1086 1.17727 33.5677V11.511C1.17727 10.97 1.61734 10.53 2.15828 10.53H24.6375C24.9627 10.53 25.2261 10.2664 25.2261 9.94136C25.2261 9.61628 24.9626 9.35276 24.6375 9.35276H7.74344L18.45 4.06456C18.8691 4.54245 19.4836 4.84503 20.1677 4.84503C20.8519 4.84503 21.4663 4.54245 21.8855 4.06456L32.592 9.35276H26.992C26.667 9.35276 26.4034 9.61628 26.4034 9.94136C26.4034 10.2664 26.667 10.53 26.992 10.53H37.8417C38.3827 10.53 38.8227 10.97 38.8227 11.511V33.5676C38.8227 34.1085 38.3827 34.5486 37.8417 34.5486H29.5783C29.2531 34.5486 28.9897 34.8121 28.9897 35.1372C28.9897 35.4623 29.2532 35.7258 29.5783 35.7258H37.8417C39.0318 35.7258 40 34.7576 40 33.5675V11.511C40 10.3209 39.0319 9.35268 37.8417 9.35268ZM20.1677 3.66776C19.5567 3.66776 19.0596 3.17065 19.0596 2.55964C19.0596 1.94862 19.5567 1.45151 20.1677 1.45151C20.7787 1.45151 21.2759 1.94862 21.2759 2.55964C21.2758 3.17065 20.7787 3.66776 20.1677 3.66776Z" fill="#28478A"/>
<path d="M10.0266 19.5499C10.3516 19.5499 10.6152 19.2864 10.6152 18.9613C10.6152 18.6362 10.3516 18.3727 10.0266 18.3727H7.49875C7.17359 18.3727 6.91016 18.6362 6.91016 18.9613V25.2548C6.91016 25.2554 6.91023 25.256 6.91023 25.2566C6.91023 25.2572 6.91016 25.2578 6.91016 25.2584C6.91016 25.5835 7.17367 25.847 7.49875 25.847H10.0266C10.3516 25.847 10.6152 25.5835 10.6152 25.2584C10.6152 24.9333 10.3516 24.6698 10.0266 24.6698H8.08734V22.6985H10.0266C10.3516 22.6985 10.6152 22.4349 10.6152 22.1099C10.6152 21.7848 10.3516 21.5213 10.0266 21.5213H8.08734V19.55H10.0266V19.5499Z" fill="#28478A"/>
<path d="M18.2898 25.8469H20.8177C21.1427 25.8469 21.4063 25.5834 21.4063 25.2584C21.4063 24.9333 21.1427 24.6698 20.8177 24.6698H18.8784V22.6984H20.8177C21.1427 22.6984 21.4063 22.4349 21.4063 22.1098C21.4063 21.7848 21.1427 21.5212 20.8177 21.5212H18.8784V19.55H20.8177C21.1427 19.55 21.4063 19.2865 21.4063 18.9614C21.4063 18.6363 21.1427 18.3728 20.8177 18.3728H18.2898C17.9647 18.3728 17.7012 18.6363 17.7012 18.9614V25.2549C17.7012 25.2555 17.7013 25.2561 17.7013 25.2567C17.7013 25.2573 17.7012 25.2579 17.7012 25.2585C17.7012 25.5834 17.9646 25.8469 18.2898 25.8469Z" fill="#28478A"/>
<path d="M11.3616 19.1192L13.0116 25.0404C13.146 25.5228 13.5728 25.8469 14.0735 25.8469C14.5742 25.8469 15.001 25.5227 15.1354 25.0404L16.7854 19.1192C16.8727 18.8061 16.6896 18.4815 16.3764 18.3942C16.063 18.3069 15.7386 18.4902 15.6514 18.8032L14.0735 24.4656L12.4955 18.8032C12.4083 18.4901 12.084 18.307 11.7704 18.3942C11.4575 18.4815 11.2743 18.8061 11.3616 19.1192Z" fill="#28478A"/>
<path d="M23.8139 25.2547V21.2097L26.2519 25.5468C26.3895 25.7915 26.6907 25.9062 26.9565 25.8149C27.1915 25.7342 27.3536 25.5067 27.3536 25.2583V18.9612C27.3536 18.6362 27.0901 18.3726 26.765 18.3726C26.4399 18.3726 26.1764 18.6362 26.1764 18.9612V23.0099L23.7384 18.6728C23.6072 18.4394 23.335 18.324 23.0763 18.3918C22.8173 18.4596 22.6367 18.6935 22.6367 18.9612V25.2547C22.6367 25.5798 22.9002 25.8433 23.2253 25.8433C23.5505 25.8434 23.8139 25.5798 23.8139 25.2547Z" fill="#28478A"/>
<path d="M30.8062 25.8468C31.1313 25.8468 31.3948 25.5833 31.3948 25.2583V19.5534H32.8382C33.1634 19.5534 33.4268 19.2899 33.4268 18.9648C33.4268 18.6397 33.1633 18.3762 32.8382 18.3762H28.7741C28.449 18.3762 28.1855 18.6397 28.1855 18.9648C28.1855 19.2899 28.4491 19.5534 28.7741 19.5534H30.2176V25.2583C30.2176 25.5833 30.4811 25.8468 30.8062 25.8468Z" fill="#28478A"/>
</svg>
