<svg width="40" height="40" viewBox="0 0 40 40" fill="none" xmlns="http://www.w3.org/2000/svg">
<path d="M39.9577 27.6124L37.3179 20.8024C37.2532 20.6355 37.1201 20.5044 36.9523 20.4422C36.7845 20.3801 36.598 20.3928 36.4402 20.4773L34.2137 21.669C33.7736 21.8981 33.3039 21.7257 32.5116 21.4018C31.8995 21.1515 31.1724 20.855 30.3201 20.8191V6.04644C30.3201 5.88066 30.2542 5.72175 30.137 5.60457L24.7157 0.182925C24.5984 0.0657373 24.4395 -0.00012207 24.2738 -0.00012207H0.625C0.279844 -0.00012207 0 0.279722 0 0.624878V39.375C0 39.7202 0.279844 40 0.625 40H29.6952C30.0403 40 30.3202 39.7202 30.3202 39.375V37.3729C30.828 37.2564 31.2863 36.9334 31.5566 36.4421C31.7423 36.1045 31.8131 35.7339 31.7827 35.3753C32.3385 35.2853 32.8491 34.951 33.1408 34.4207C33.289 34.1512 33.3631 33.86 33.371 33.5703C33.388 33.5707 33.4051 33.5718 33.4221 33.5718C34.0905 33.5718 34.7393 33.2175 35.0836 32.5918C35.2588 32.2734 35.3307 31.9245 35.3116 31.5838C35.4073 31.5718 35.5028 31.5531 35.5976 31.5261C36.0904 31.3861 36.4971 31.0628 36.7428 30.616C36.9283 30.2788 36.9979 29.9064 36.965 29.5454L39.6202 28.4133C39.9302 28.2811 40.0796 27.9268 39.9577 27.6124ZM24.8987 2.13371L28.1863 5.42144H25.4205C25.1327 5.42144 24.8987 5.18738 24.8987 4.89957V2.13371ZM1.25 38.75V1.24988H23.6487V4.89957C23.6487 5.8766 24.4435 6.67144 25.4205 6.67144H29.0702V20.9638C28.6774 21.0721 28.2634 21.2461 27.827 21.5068C26.3714 20.6873 25.1356 20.9782 24.128 21.2163C23.3201 21.4072 22.7996 21.5099 22.3011 21.2296C22.2865 21.2214 22.2716 21.2137 22.2565 21.2067L19.3454 19.8637C19.0338 19.7201 18.664 19.8546 18.5179 20.1653L15.4773 26.6346C15.4022 26.7944 15.3981 26.9784 15.4661 27.1413C15.5302 27.2949 15.6528 27.4161 15.806 27.4789C15.8493 27.4976 18.5219 28.7007 18.7818 28.8015C18.9138 28.8528 18.9698 29.1093 19.0402 29.4946C19.0841 29.7352 19.1329 29.9967 19.231 30.2453L18.8354 30.9851C18.5977 31.4296 18.5477 31.9413 18.6945 32.426C18.8414 32.9107 19.1671 33.3086 19.6116 33.5464C19.86 33.6792 20.1294 33.753 20.4033 33.767C20.3858 33.998 20.4107 34.2328 20.4801 34.4617C20.627 34.9464 20.9527 35.3442 21.3971 35.5819C21.9158 35.8593 22.543 35.8735 23.0766 35.6308C23.247 35.9416 23.5059 36.2082 23.841 36.3875C24.1183 36.5357 24.4216 36.611 24.7283 36.611C24.9452 36.611 25.1568 36.5718 25.3611 36.5C25.5275 36.8621 25.8086 37.1749 26.1862 37.3769C26.4696 37.5284 26.7746 37.6003 27.0755 37.6003C27.6235 37.6003 28.1576 37.3618 28.5217 36.9326L28.9865 37.1882C29.0141 37.2033 29.0421 37.2171 29.0701 37.2307V38.75H1.25V38.75ZM27.6645 33.6522C27.7258 33.6335 27.7898 33.6237 27.8537 33.6237C28.3255 33.6237 28.6387 34.1535 28.4168 34.5683L27.6452 36.0112C27.478 36.3235 27.0877 36.4418 26.7758 36.2746C26.4634 36.1076 26.3452 35.7176 26.5123 35.4053C26.5123 35.4053 27.2837 33.9629 27.2842 33.9618C27.3612 33.8107 27.5038 33.7012 27.6645 33.6522ZM26.1817 33.3728C26.1817 33.3728 25.3004 35.0208 25.2999 35.0217C25.1359 35.3283 24.737 35.4491 24.4305 35.2851C24.1238 35.121 24.0032 34.7223 24.1671 34.4157C24.1671 34.4157 25.047 32.7704 25.0488 32.7669C25.4305 32.0531 26.5748 32.6375 26.1817 33.3728ZM23.9466 32.1774C23.9466 32.1774 22.8563 34.2158 22.8561 34.2163C22.6941 34.5193 22.2948 34.6446 21.9867 34.4796C21.6801 34.3155 21.5593 33.9169 21.7233 33.6103C21.7233 33.6103 22.8149 31.5696 22.8153 31.5689C22.9254 31.3632 23.1511 31.2328 23.3835 31.2328C23.8513 31.2328 24.1697 31.76 23.9466 32.1774ZM21.8753 30.6758C21.8753 30.6758 21.0693 32.1824 21.069 32.1831C20.9053 32.4889 20.5061 32.6071 20.2012 32.444C19.8977 32.2818 19.7724 31.8836 19.9377 31.5746C19.9377 31.5746 20.7419 30.0711 20.7425 30.07C20.907 29.7624 21.306 29.643 21.6128 29.807C21.9143 29.9681 22.0355 30.3767 21.8753 30.6758ZM30.4613 35.8397C30.2906 36.1501 29.8994 36.2638 29.5887 36.0929L29.1484 35.8508L29.5191 35.1577C29.5998 35.0068 29.6583 34.848 29.6953 34.6853L30.198 34.9618L30.2065 34.9664C30.5173 35.1384 30.6315 35.5302 30.4613 35.8397ZM35.6475 30.0136C35.564 30.1655 35.4248 30.2757 35.2557 30.3238C35.0929 30.37 34.9242 30.3512 34.7812 30.2703L31.639 28.4953C31.3382 28.3255 30.957 28.4318 30.7874 28.7321C30.6177 29.0327 30.7237 29.414 31.0242 29.5837C31.0242 29.5837 33.7188 31.1078 33.7297 31.1139C34.0412 31.2893 34.1573 31.682 33.9883 31.9893C33.8177 32.2996 33.4263 32.4132 33.1159 32.2426L29.6945 30.3306C29.3936 30.1612 29.0125 30.268 28.8432 30.5687C28.6739 30.8696 28.7805 31.2507 29.0813 31.42L31.787 32.9428C32.0986 33.1182 32.2146 33.5108 32.0455 33.8182C31.8749 34.1285 31.4834 34.2422 31.1731 34.0714L29.2757 33.0222C29.1269 32.8511 28.9482 32.7058 28.743 32.5965C28.3261 32.3736 27.8501 32.3155 27.3924 32.4306C27.2336 31.9865 26.9234 31.6224 26.5078 31.4011C26.0774 31.1709 25.597 31.1246 25.1572 31.2346C24.9983 30.7908 24.688 30.4268 24.2727 30.2056C23.9281 30.0214 23.5431 29.9503 23.1617 29.9959C23.1498 29.9377 23.1352 29.8797 23.1177 29.8221C22.9703 29.3373 22.6446 28.9401 22.2014 28.704C21.5368 28.3485 20.7528 28.4318 20.1832 28.8521C20.0657 28.3861 19.837 27.8701 19.2343 27.6361C18.987 27.5401 17.5823 26.9074 16.8792 26.5905L19.3853 21.2585L21.7116 22.3318C22.6527 22.849 23.5888 22.628 24.4154 22.4326C25.1609 22.2566 25.8749 22.0883 26.6812 22.3578C26.5293 22.4931 26.3782 22.6366 26.2284 22.7878C25.3841 23.6411 24.3032 24.4477 23.0159 25.1851C22.862 25.2733 22.7527 25.4228 22.7155 25.5963C22.6782 25.7698 22.7166 25.9509 22.8208 26.0945C24.6137 28.5653 26.798 27.6812 28.3926 27.0354C29.4302 26.6153 30.3264 26.2525 31.0027 26.638L35.3859 29.1364C35.6983 29.3146 35.8155 29.708 35.6475 30.0136ZM36.4537 28.4045C36.3256 28.2678 36.1755 28.1478 36.005 28.0506L31.6216 25.5522C31.2045 25.3144 30.7795 25.221 30.3509 25.221C29.5441 25.221 28.7248 25.5526 27.9235 25.877C26.3724 26.5049 25.2998 26.8596 24.2823 25.8849C25.389 25.1962 26.3402 24.4522 27.117 23.6673C27.4661 23.3145 27.8202 23.0132 28.1694 22.7717C28.9508 22.2315 29.8507 21.9316 30.7995 22.1348C31.2278 22.2265 31.6348 22.3938 32.0388 22.5589C32.9125 22.916 33.8157 23.2852 34.7972 22.7746L36.4077 21.9126L38.5739 27.5005L36.4537 28.4045ZM5.18414 16.4905C5.18414 17.7357 6.19719 18.7487 7.44234 18.7487H14.7917C16.0369 18.7487 17.0499 17.7357 17.0499 16.4905V11.3905C17.8001 11.7352 18.7157 11.5151 19.2183 10.8218C19.7899 10.0327 19.6132 8.92558 18.8248 8.35425L12.179 3.52574C11.5555 3.05652 10.7128 3.04902 10.0795 3.508L3.40992 8.35386C2.62086 8.92566 2.44414 10.0328 3.01586 10.8219C3.36117 11.2983 3.90148 11.5514 4.44922 11.5514C4.69867 11.5514 4.94938 11.4975 5.18414 11.3896V16.4905ZM12.0752 17.4987H10.1591V12.6449C10.1591 12.5672 10.2247 12.5016 10.3023 12.5016H11.932C12.0096 12.5016 12.0752 12.5672 12.0752 12.6449V17.4987ZM14.7918 17.4987H13.3252V12.6449C13.3252 11.8766 12.7002 11.2516 11.932 11.2516H10.3023C9.53406 11.2516 8.90906 11.8766 8.90906 12.6449V17.4987H7.44242C6.88648 17.4987 6.43422 17.0464 6.43422 16.4905V10.5253L11.1171 7.123L15.8 10.5253V16.4905C15.8 17.0464 15.3477 17.4987 14.7918 17.4987ZM4.02813 10.0883C3.8607 9.85746 3.91258 9.53332 4.14406 9.3655L10.8137 4.5198C10.9966 4.38738 11.2498 4.38988 11.4294 4.52613C11.4328 4.52871 11.4362 4.53121 11.4398 4.53378L18.0908 9.36605C18.3217 9.53347 18.3735 9.85746 18.2062 10.0883C18.0388 10.3192 17.7148 10.371 17.4846 10.2042L11.4845 5.84488C11.3751 5.76527 11.2461 5.7255 11.1172 5.7255C10.9883 5.7255 10.8593 5.76535 10.7498 5.84488L4.74977 10.2042C4.51883 10.3707 4.19516 10.3189 4.02813 10.0883ZM13.1517 25.9098C13.1517 26.255 12.8719 26.5348 12.5267 26.5348H5.80914C5.46398 26.5348 5.18414 26.255 5.18414 25.9098C5.18414 25.5646 5.46398 25.2848 5.80914 25.2848H12.5266C12.8719 25.2848 13.1517 25.5646 13.1517 25.9098ZM15.7298 29.6598C15.7298 30.005 15.45 30.2848 15.1048 30.2848H5.80914C5.46398 30.2848 5.18414 30.005 5.18414 29.6598C5.18414 29.3146 5.46398 29.0348 5.80914 29.0348H15.1048C15.45 29.0348 15.7298 29.3146 15.7298 29.6598ZM15.7298 33.4098C15.7298 33.755 15.45 34.0348 15.1048 34.0348H5.80914C5.46398 34.0348 5.18414 33.755 5.18414 33.4098C5.18414 33.0646 5.46398 32.7848 5.80914 32.7848H15.1048C15.45 32.7848 15.7298 33.0646 15.7298 33.4098ZM13.1517 22.1597C13.1517 22.5049 12.8719 22.7847 12.5267 22.7847H5.80914C5.46398 22.7847 5.18414 22.5049 5.18414 22.1597C5.18414 21.8146 5.46398 21.5347 5.80914 21.5347H12.5266C12.8719 21.5347 13.1517 21.8146 13.1517 22.1597Z" fill="#28478A"/>
</svg>
