<svg width="40" height="40" viewBox="0 0 40 40" fill="none" xmlns="http://www.w3.org/2000/svg">
<path d="M38.0645 20.6452H33.5484V17.4194C33.5484 16.3523 32.68 15.4839 31.6129 15.4839H30.9677V0H8.76516L0 8.76516V40H14.8387H17.4194H38.0645C39.1316 40 40 39.1316 40 38.0645V22.5806C40 21.5135 39.1316 20.6452 38.0645 20.6452ZM33.5484 21.9355H38.0645C38.2684 21.9355 38.4426 22.0361 38.5606 22.1839L35.0471 30.9677H29.0323V29.6774H23.871V30.9677H17.8561L14.3426 22.1839C14.4606 22.0361 14.6348 21.9355 14.8387 21.9355H19.3548H21.9355H30.9677H33.5484ZM27.7419 30.9677V32.2581H25.1613V30.9677H27.7419ZM23.2258 20.6452V19.3548H29.6774V20.6452H23.2258ZM31.6129 16.7742C31.969 16.7742 32.2581 17.0632 32.2581 17.4194V20.6452H30.9677V18.0645H21.9355V20.6452H20.6452V17.4194C20.6452 17.0632 20.9342 16.7742 21.2903 16.7742H31.6129ZM8.3871 2.20258V8.3871H2.20258L8.3871 2.20258ZM13.0219 38.7097H1.29032V9.67742H2.58065V14.1935H27.0968V8.91355C27.8458 8.64645 28.3871 7.93677 28.3871 7.09677C28.3871 6.59935 28.1929 6.14968 27.8839 5.80645C28.1929 5.46323 28.3871 5.01355 28.3871 4.51613C28.3871 3.44903 27.5187 2.58065 26.4516 2.58065H23.2258V5.16129V6.45161V9.03226H25.8064V12.9032H3.87097V9.67742H9.67742V1.29032H29.6774V15.4839H21.2903C20.2232 15.4839 19.3548 16.3523 19.3548 17.4194V20.6452H14.8387C13.7716 20.6452 12.9032 21.5135 12.9032 22.5806V38.0645C12.9032 38.2916 12.9497 38.5071 13.0219 38.7097ZM26.4516 6.45161C26.8077 6.45161 27.0968 6.74064 27.0968 7.09677C27.0968 7.4529 26.8077 7.74194 26.4516 7.74194H24.5161V6.45161H26.4516ZM24.5161 5.16129V3.87097H26.4516C26.8077 3.87097 27.0968 4.16 27.0968 4.51613C27.0968 4.87226 26.8077 5.16129 26.4516 5.16129H24.5161ZM38.7097 38.0645C38.7097 38.4206 38.4206 38.7097 38.0645 38.7097H17.4194H14.8387C14.4826 38.7097 14.1935 38.4206 14.1935 38.0645V25.2858L16.9826 32.2581H23.871V33.5484H29.0323V32.2581H35.9206L38.7097 25.2858V38.0645Z" fill="#28478A"/>
<path d="M3.8704 15.4839H2.58008V16.7742H3.8704V15.4839Z" fill="#28478A"/>
<path d="M18.0653 15.4839H5.16211V16.7742H18.0653V15.4839Z" fill="#28478A"/>
<path d="M18.0639 18.0646H2.58008V19.3549H18.0639V18.0646Z" fill="#28478A"/>
<path d="M11.6123 20.6451H2.58008V21.9355H11.6123V20.6451Z" fill="#28478A"/>
<path d="M11.6123 23.2258H2.58008V24.5162H11.6123V23.2258Z" fill="#28478A"/>
<path d="M11.6123 25.8064H2.58008V27.0967H11.6123V25.8064Z" fill="#28478A"/>
<path d="M11.6125 28.3871H6.45117V29.6774H11.6125V28.3871Z" fill="#28478A"/>
<path d="M5.16072 28.3871H2.58008V29.6774H5.16072V28.3871Z" fill="#28478A"/>
<path d="M11.6123 30.9678H2.58008V32.2581H11.6123V30.9678Z" fill="#28478A"/>
<path d="M11.6123 33.5483H2.58008V34.8387H11.6123V33.5483Z" fill="#28478A"/>
<path d="M9.03169 36.129H2.58008V37.4194H9.03169V36.129Z" fill="#28478A"/>
<path d="M11.6126 36.129H10.3223V37.4194H11.6126V36.129Z" fill="#28478A"/>
<path d="M11.6126 3.87101H12.9029V7.09682C12.9029 7.45295 12.6139 7.74198 12.2577 7.74198C11.9016 7.74198 11.6126 7.45295 11.6126 7.09682V6.45166H10.3223V7.09682C10.3223 8.16391 11.1907 9.0323 12.2577 9.0323C13.3248 9.0323 14.1932 8.16391 14.1932 7.09682V3.87101H15.4836V2.58069H11.6126V3.87101Z" fill="#28478A"/>
<path d="M19.3541 2.58069C17.9309 2.58069 16.7734 3.73811 16.7734 5.16133V6.45166C16.7734 7.87488 17.9309 9.0323 19.3541 9.0323C20.7773 9.0323 21.9347 7.87488 21.9347 6.45166V5.16133C21.9347 3.73811 20.7773 2.58069 19.3541 2.58069ZM20.6444 6.45166C20.6444 7.16327 20.0657 7.74198 19.3541 7.74198C18.6425 7.74198 18.0638 7.16327 18.0638 6.45166V5.16133C18.0638 4.44972 18.6425 3.87101 19.3541 3.87101C20.0657 3.87101 20.6444 4.44972 20.6444 5.16133V6.45166Z" fill="#28478A"/>
</svg>
