<svg width="40" height="36" viewBox="0 0 40 36" fill="none" xmlns="http://www.w3.org/2000/svg">
<path d="M39.4141 34.6361H38.7475V18.2728H39.4141C39.6124 18.2728 39.7973 18.1724 39.9054 18.0061C40.0135 17.8398 40.0301 17.6301 39.9495 17.4488L37.4445 11.8125C37.3505 11.601 37.1406 11.4646 36.9091 11.4646H24.6265L20.586 7.42393V4.49502H24.3838C24.7074 4.49502 24.9698 4.23268 24.9698 3.90908V0.777832C24.9698 0.454238 24.7074 0.191895 24.3838 0.191895H20C19.6764 0.191895 19.4141 0.454238 19.4141 0.777832V7.424L15.3735 11.4646H3.09095C2.85939 11.4646 2.64955 11.601 2.55549 11.8125L0.0504858 17.4488C-0.0300611 17.6301 -0.0134205 17.8398 0.0946264 18.0061C0.202673 18.1724 0.387595 18.2728 0.585955 18.2728H1.25252V34.6362H0.585955C0.262361 34.6362 1.70491e-05 34.8985 1.70491e-05 35.2221C1.70491e-05 35.5457 0.262361 35.8081 0.585955 35.8081H39.4141C39.7377 35.8081 40 35.5457 40 35.2221C40 34.8985 39.7377 34.6361 39.4141 34.6361ZM23.7979 3.32314H20.586V1.36377H23.7979V3.32314ZM3.47174 12.6364H14.2016L9.73713 17.1009H1.4876L3.47174 12.6364ZM2.42439 18.2728H9.97978C10.1352 18.2728 10.2842 18.211 10.3941 18.1011L20 8.49525L29.6059 18.1011C29.7157 18.211 29.8648 18.2728 30.0202 18.2728H34.404C34.7276 18.2728 34.9899 18.0104 34.9899 17.6868C34.9899 17.3632 34.7276 17.1009 34.404 17.1009H30.2629L25.7985 12.6364H36.5283L38.5125 17.1009H36.9091C36.5855 17.1009 36.3231 17.3632 36.3231 17.6868C36.3231 18.0104 36.5855 18.2728 36.9091 18.2728H37.5756V34.6362H25.596V32.7171C25.596 32.3935 25.3337 32.1312 25.0101 32.1312H24.3435V27.0808C24.3435 26.7572 24.0812 26.4949 23.7576 26.4949H16.2425C15.9189 26.4949 15.6566 26.7572 15.6566 27.0808V32.1312H14.99C14.6664 32.1312 14.4041 32.3935 14.4041 32.7171V34.6362H2.42439V18.2728ZM23.1717 27.6667V32.1311H20.586V27.6667H23.1717ZM19.4141 32.1311H16.8284V27.6667H19.4141V32.1311ZM24.4242 33.303V34.6361H15.5759V33.303H24.4242Z" fill="#28478A"/>
<path d="M19.9998 23.2829C22.3948 23.2829 24.3433 21.3344 24.3433 18.9393C24.3433 16.5443 22.3948 14.5958 19.9998 14.5958C17.6047 14.5958 15.6562 16.5443 15.6562 18.9393C15.6562 21.3343 17.6048 23.2829 19.9998 23.2829ZM19.9998 15.7677C21.7486 15.7677 23.1714 17.1905 23.1714 18.9393C23.1714 20.6882 21.7486 22.111 19.9998 22.111C18.2509 22.111 16.8281 20.6882 16.8281 18.9393C16.8281 17.1904 18.2509 15.7677 19.9998 15.7677Z" fill="#28478A"/>
<path d="M20 20.7778C20.3236 20.7778 20.5859 20.5155 20.5859 20.1919V19.3015L21.5145 18.8372C21.804 18.6925 21.9213 18.3406 21.7766 18.0511C21.6319 17.7617 21.2799 17.6443 20.9905 17.7891L19.738 18.4153C19.5395 18.5146 19.4141 18.7175 19.4141 18.9394V20.1919C19.4141 20.5155 19.6764 20.7778 20 20.7778Z" fill="#28478A"/>
<path d="M13.1114 26.4948H4.34375C4.02016 26.4948 3.75781 26.7571 3.75781 27.0807V30.8383C3.75781 31.1619 4.02016 31.4242 4.34375 31.4242H5.59648C5.92008 31.4242 6.18242 31.1619 6.18242 30.8383C6.18242 30.5147 5.92008 30.2523 5.59648 30.2523H4.92969V27.6666H8.14164V30.2523H8.10141C7.77781 30.2523 7.51547 30.5147 7.51547 30.8383C7.51547 31.1619 7.77781 31.4242 8.10141 31.4242H13.1114C13.435 31.4242 13.6973 31.1619 13.6973 30.8383V27.0807C13.6973 26.7571 13.435 26.4948 13.1114 26.4948ZM12.5255 30.2523H9.31352V27.6666H12.5255V30.2523Z" fill="#28478A"/>
<path d="M13.1114 20.2322H4.34375C4.02016 20.2322 3.75781 20.4945 3.75781 20.8181V24.5757C3.75781 24.8993 4.02016 25.1616 4.34375 25.1616H13.1114C13.435 25.1616 13.6973 24.8993 13.6973 24.5757V20.8181C13.6973 20.4945 13.435 20.2322 13.1114 20.2322ZM4.92969 21.4041H8.14164V23.9898H4.92969V21.4041ZM12.5255 23.9897H9.31352V21.404H12.5255V23.9897Z" fill="#28478A"/>
<path d="M26.8887 31.4242H35.6563C35.9799 31.4242 36.2423 31.1619 36.2423 30.8383V27.0807C36.2423 26.7571 35.9799 26.4948 35.6563 26.4948H26.8887C26.5651 26.4948 26.3027 26.7571 26.3027 27.0807V30.8383C26.3027 31.1619 26.5651 31.4242 26.8887 31.4242ZM35.0704 30.2523H31.8584V27.6666H35.0704V30.2523ZM27.4746 27.6666H30.6866V30.2523H27.4746V27.6666Z" fill="#28478A"/>
<path d="M26.8887 25.1616H35.6563C35.9799 25.1616 36.2423 24.8993 36.2423 24.5757V20.8181C36.2423 20.4945 35.9799 20.2322 35.6563 20.2322H26.8887C26.5651 20.2322 26.3027 20.4945 26.3027 20.8181V24.5757C26.3027 24.8994 26.5651 25.1616 26.8887 25.1616ZM35.0704 23.9898H31.8584V21.4041H35.0704V23.9898ZM27.4746 21.4041H30.6866V23.9898H27.4746V21.4041Z" fill="#28478A"/>
</svg>
