<svg width="40" height="40" viewBox="0 0 40 40" fill="none" xmlns="http://www.w3.org/2000/svg">
<g clip-path="url(#clip0_302_127)">
<path d="M39.9901 16.2934L39.148 11.604C39.1453 11.5888 39.1416 11.574 39.1379 11.5592C39.1359 11.5515 39.1338 11.5438 39.1315 11.5361C39.1255 11.5159 39.1185 11.4963 39.1106 11.477C39.1076 11.4695 39.1046 11.4622 39.1012 11.4549C39.0913 11.4328 39.0801 11.4113 39.0677 11.3906C39.0644 11.3851 39.0606 11.3797 39.0571 11.3742C39.0448 11.3552 39.0316 11.3368 39.0175 11.3192C39.0153 11.3166 39.0137 11.3135 39.0114 11.3108L34.297 5.66422V0.631562C34.297 0.282656 34.0144 0 33.6655 0H6.33438C5.98547 0 5.70281 0.282734 5.70281 0.631562V5.66469L0.992422 11.3067C0.992031 11.3072 0.991641 11.3077 0.99125 11.3081L0.988984 11.3109C0.988203 11.3119 0.987734 11.3129 0.986953 11.3137C0.969922 11.3343 0.954531 11.3561 0.940156 11.3787C0.938125 11.382 0.935938 11.385 0.933984 11.3883C0.920313 11.4107 0.908281 11.4341 0.897422 11.4584C0.895313 11.463 0.893359 11.4679 0.891328 11.4726C0.881328 11.4966 0.872188 11.5212 0.865156 11.5469C0.865078 11.5473 0.864844 11.5477 0.864766 11.5482C0.859688 11.5666 0.855469 11.5852 0.852031 11.6042L0.00992187 16.2936C0.00328125 16.3303 0 16.3676 0 16.4051C0 18.3235 1.26258 19.9522 3.00031 20.5048V39.3684C3.00031 39.7173 3.28305 40 3.63188 40H7.41211C7.76102 40 8.04367 39.7173 8.04367 39.3684C8.04367 39.0195 7.76102 38.7369 7.41211 38.7369H4.26352V20.7055C4.27617 20.7055 4.28867 20.7064 4.30133 20.7064H4.70906C6.26023 20.7064 7.62219 19.8809 8.37898 18.6462C9.13578 19.8808 10.4975 20.7064 12.0487 20.7064H12.4564C14.0076 20.7064 15.3696 19.8809 16.1264 18.6463C16.8832 19.8809 18.2449 20.7064 19.796 20.7064H20.2038C21.7549 20.7064 23.1166 19.8809 23.8736 18.6463C24.6304 19.8809 25.9923 20.7064 27.5433 20.7064H27.9512C29.5024 20.7064 30.8642 19.8809 31.6211 18.6462C32.3779 19.8809 33.7398 20.7064 35.2909 20.7064H35.6987C35.7114 20.7064 35.7238 20.7055 35.7365 20.7055V38.7369H33.4691V27.627V24.2585C33.4691 23.9096 33.1864 23.627 32.8375 23.627H23.8737C23.5248 23.627 23.2421 23.9096 23.2421 24.2585V27.627V38.7369H9.43258C9.08367 38.7369 8.80102 39.0196 8.80102 39.3684C8.80102 39.7173 9.08367 40 9.43258 40H23.8737H32.8373H36.3679C36.7168 40 36.9995 39.7173 36.9995 39.3684V20.5048C38.7373 19.9521 40 18.3234 40 16.4051C40 16.3677 39.9967 16.3303 39.9901 16.2934ZM32.2057 38.7369H24.5052V28.2585H32.2057V38.7369ZM32.2057 26.9954H24.5052V24.8902H32.2057V26.9954ZM6.96602 1.26312H33.034V5.13867H6.96602V1.26312ZM22.8863 11.0841H17.1137L17.8247 6.40188H22.1753L22.8863 11.0841ZM7.75242 16.3263C7.74906 16.3524 7.74734 16.3787 7.74734 16.4051C7.74734 18.0804 6.3843 19.4433 4.70906 19.4433H4.30133C2.64398 19.4433 1.29234 18.1094 1.26367 16.4587L2.00203 12.3473H8.25258L7.75242 16.3263ZM2.82375 11.0841L6.73281 6.40188H10.8778L8.57516 11.0841H2.82375ZM15.4956 16.371C15.495 16.3823 15.4947 16.3937 15.4947 16.4049C15.4947 18.0803 14.1316 19.4432 12.4564 19.4432H12.0487C10.386 19.4432 9.03102 18.1007 9.01078 16.4427L9.25344 14.5119L9.52555 12.3472H15.7124L15.4956 16.371ZM15.836 11.0841H9.98289L12.2855 6.40188H16.547L15.836 11.0841ZM20.2038 19.4433H19.7961C18.1262 19.4433 16.7667 18.0891 16.758 16.4212L16.8101 15.4548L16.9775 12.3472H23.0227L23.2079 15.7865L23.2421 16.4212C23.2334 18.0891 21.8737 19.4433 20.2038 19.4433ZM23.453 6.40188H27.7145L30.0171 11.0841H24.164L23.453 6.40188ZM27.9512 19.4433H27.5433C25.868 19.4433 24.5053 18.0803 24.5053 16.4051C24.5053 16.3937 24.505 16.3823 24.5044 16.3712L24.2876 12.3473H30.4745L30.9892 16.4429C30.9689 18.1008 29.6139 19.4433 27.9512 19.4433ZM31.4248 11.0841L29.1222 6.40188H33.2673L37.1766 11.0841H31.4248ZM35.6985 19.4433H35.2908C33.6155 19.4433 32.2527 18.0803 32.2527 16.4051C32.2527 16.3787 32.2509 16.3524 32.2477 16.3263L31.7475 12.3472H37.998L38.7364 16.4586C38.7077 18.1094 37.356 19.4433 35.6985 19.4433Z" fill="#28478A"/>
<path d="M20.4811 23.627H7.405C7.05609 23.627 6.77344 23.9096 6.77344 24.2585V32.2345C6.77344 32.5834 7.05609 32.8661 7.405 32.8661H20.4809C20.8298 32.8661 21.1126 32.5834 21.1126 32.2345V24.2585C21.1127 23.9096 20.8299 23.627 20.4811 23.627ZM8.03656 31.603V24.8902H19.8494V31.603H8.03656Z" fill="#28478A"/>
<path d="M31.1166 2.56934H9.05344C8.70453 2.56934 8.42188 2.85207 8.42188 3.2009C8.42188 3.54973 8.70453 3.83246 9.05344 3.83246H31.1166C31.4655 3.83246 31.7481 3.54973 31.7481 3.2009C31.7481 2.85207 31.4655 2.56934 31.1166 2.56934Z" fill="#28478A"/>
</g>
<defs>
<clipPath id="clip0_302_127">
<rect width="40" height="40" fill="white"/>
</clipPath>
</defs>
</svg>
