<svg width="40" height="38" viewBox="0 0 40 38" fill="none" xmlns="http://www.w3.org/2000/svg">
<path d="M36.25 5H8.75C6.6875 5 5 6.6875 5 8.75V33.75C5 35.8125 6.6875 37.5 8.75 37.5H36.25C38.3125 37.5 40 35.8125 40 33.75V8.75C40 6.6875 38.3125 5 36.25 5ZM37.5 33.75C37.5 34.4375 36.9375 35 36.25 35H8.75C8.0625 35 7.5 34.4375 7.5 33.75V8.75C7.5 8.0625 8.0625 7.5 8.75 7.5H36.25C36.9375 7.5 37.5 8.0625 37.5 8.75V33.75ZM31.25 2.5H3.75C3.0625 2.5 2.5 3.0625 2.5 3.75V28.75C2.5 29.4375 1.9375 30 1.25 30C0.5625 30 0 29.4375 0 28.75V3.75C0 1.6875 1.6875 0 3.75 0H31.25C31.9375 0 32.5 0.5625 32.5 1.25C32.5 1.9375 31.9375 2.5 31.25 2.5ZM30 21.25C30 21.9375 29.4375 22.5 28.75 22.5H23.75V27.5C23.75 28.1875 23.1875 28.75 22.5 28.75C21.8125 28.75 21.25 28.1875 21.25 27.5V22.5H16.25C15.5625 22.5 15 21.9375 15 21.25C15 20.5625 15.5625 20 16.25 20H21.25V15C21.25 14.3125 21.8125 13.75 22.5 13.75C23.1875 13.75 23.75 14.3125 23.75 15V20H28.75C29.4375 20 30 20.5625 30 21.25Z" fill="#28478A"/>
</svg>
