<svg width="40" height="34" viewBox="0 0 40 34" fill="none" xmlns="http://www.w3.org/2000/svg">
<path d="M5.43151 14.7522H34.5687C34.9212 14.7522 35.207 14.4664 35.207 14.1139C35.207 13.7614 34.9212 13.4756 34.5687 13.4756H5.43151C5.079 13.4756 4.79321 13.7614 4.79321 14.1139C4.79321 14.4664 5.079 14.7522 5.43151 14.7522Z" fill="#28478A"/>
<path d="M39.4443 16.4574L37.794 13.8591L37.1759 11.3762H38.5106C38.8631 11.3762 39.1489 11.0904 39.1489 10.7379C39.1489 10.3854 38.8631 10.0996 38.5106 10.0996H36.8581L35.1929 3.41068C34.7795 1.74991 33.115 0.448975 31.4036 0.448975H8.59643C6.88502 0.448975 5.22051 1.74991 4.80706 3.41068L3.14187 10.0996H1.48936C1.13685 10.0996 0.851064 10.3854 0.851064 10.7379C0.851064 11.0904 1.13685 11.3762 1.48936 11.3762H2.824L2.20587 13.8591L0.55566 16.4575C0.238894 16.9564 0 17.7783 0 18.3691V27.6149C0 27.9674 0.285787 28.2532 0.638298 28.2532H0.851064V32.9128C0.851064 33.2653 1.13685 33.5511 1.48936 33.5511H8.20519C8.5577 33.5511 8.84349 33.2653 8.84349 32.9128V30.1681C8.84349 29.8156 8.5577 29.5298 8.20519 29.5298C7.85268 29.5298 7.56689 29.8156 7.56689 30.1681V32.2745H2.12766V28.2532H11.2295C11.2313 28.2532 28.7797 28.2532 28.7797 28.2532C28.7855 28.2532 37.8723 28.2532 37.8723 28.2532V32.2745H32.4331V30.1681C32.4331 29.8156 32.1473 29.5298 31.7948 29.5298C31.4423 29.5298 31.1565 29.8156 31.1565 30.1681V32.9128C31.1565 33.2653 31.4423 33.5511 31.7948 33.5511H38.5106C38.8631 33.5511 39.1489 33.2653 39.1489 32.9128V28.2532H39.3617C39.7142 28.2532 40 27.9674 40 27.6149V18.3691C40 17.7783 39.7611 16.9564 39.4443 16.4574ZM1.2766 18.3691C1.2766 18.0209 1.44664 17.4359 1.63336 17.1419L3.33906 14.4561C3.37583 14.3982 3.40306 14.3347 3.41966 14.2681L6.04587 3.71902C6.31489 2.63842 7.48289 1.72557 8.59643 1.72557H31.4036C32.5171 1.72557 33.6852 2.63851 33.9541 3.7191L36.5803 14.268C36.5968 14.3346 36.6241 14.3981 36.6609 14.456L38.3666 17.1418C38.5533 17.4359 38.7233 18.0209 38.7233 18.3691V26.9766H29.214L27.6723 23.1189C27.5755 22.8765 27.3408 22.7175 27.0797 22.7175H12.9203C12.6592 22.7175 12.4245 22.8765 12.3277 23.1189L10.786 26.9766H1.2766V18.3691ZM27.8393 26.9766H12.1607L13.3527 23.9941H26.6473L27.8393 26.9766Z" fill="#28478A"/>
<path d="M3.19152 23.7815H5.59322C7.49595 23.7815 9.04403 22.2335 9.04403 20.3307C9.04403 18.428 7.49603 16.8799 5.59322 16.8799H3.66292C3.31041 16.8799 3.02463 17.1657 3.02463 17.5182C3.02463 17.8707 3.31041 18.1565 3.66292 18.1565H5.59322C6.79203 18.1565 7.76744 19.1318 7.76744 20.3307C7.76744 21.5296 6.79212 22.5049 5.59322 22.5049H3.19152C2.83901 22.5049 2.55322 22.7907 2.55322 23.1432C2.55322 23.4957 2.83901 23.7815 3.19152 23.7815Z" fill="#28478A"/>
<path d="M30.9561 20.3307C30.9561 22.2335 32.5041 23.7815 34.4069 23.7815H36.8086C37.1611 23.7815 37.4469 23.4957 37.4469 23.1432C37.4469 22.7907 37.1611 22.5049 36.8086 22.5049H34.4069C33.2081 22.5049 32.2327 21.5296 32.2327 20.3307C32.2327 19.1319 33.208 18.1565 34.4069 18.1565H36.3372C36.6898 18.1565 36.9755 17.8707 36.9755 17.5182C36.9755 17.1657 36.6898 16.8799 36.3372 16.8799H34.4069C32.5041 16.8799 30.9561 18.4279 30.9561 20.3307Z" fill="#28478A"/>
</svg>
