<svg width="40" height="40" viewBox="0 0 40 40" fill="none" xmlns="http://www.w3.org/2000/svg">
<path d="M34.5201 14.8638C34.1964 14.8638 33.9341 15.1261 33.9341 15.4498V26.9693C33.9341 27.2929 34.1964 27.5552 34.5201 27.5552C34.8437 27.5552 35.106 27.2929 35.106 26.9693V23.6657L39.3133 21.9229C39.6126 21.7997 39.7563 21.4566 39.6319 21.1562L36.025 12.4481C35.3487 10.8153 33.7695 9.76019 32.0022 9.76019H28.8084C28.6758 9.76019 28.5475 9.71253 28.4471 9.62589L27.651 8.93925C27.4855 8.79652 27.3025 8.67371 27.1074 8.57418C26.8842 8.46035 26.7456 8.24504 26.7457 8.01246L26.7457 7.64293C26.7457 6.33223 25.9887 5.14114 24.817 4.60833C24.5534 4.48857 24.3948 4.22294 24.4129 3.9317C24.4336 3.59849 24.7214 3.3106 25.0526 3.28998C25.3043 3.27529 25.526 3.38201 25.6747 3.59115C25.7693 3.72396 25.7908 3.88677 25.7923 4.00013C25.8038 4.902 26.5432 5.64161 27.4777 5.62231C28.376 5.59997 29.0947 4.8338 29.0797 3.91443C29.0433 1.69475 27.1673 -0.138054 24.851 0.00819528C22.8542 0.132023 21.255 1.73124 21.1311 3.72795C21.0279 5.38888 21.9369 6.90668 23.4473 7.59754C23.4616 7.62098 23.4577 7.62387 23.4578 8.01238C23.4579 8.24512 23.3193 8.46035 23.0962 8.5741C22.9012 8.67347 22.7183 8.79636 22.5524 8.93933L21.7564 9.62589C21.656 9.71245 21.5277 9.76019 21.3951 9.76019H18.5622C18.4296 9.76019 18.3013 9.71253 18.2009 9.62589L17.4047 8.9391C17.239 8.79636 17.0561 8.67355 16.8612 8.57418C16.638 8.46035 16.4994 8.24504 16.4994 8.01246L16.4995 7.64293C16.4995 6.33223 15.7425 5.14114 14.5708 4.60833C14.3072 4.48857 14.1485 4.22294 14.1666 3.93177C14.1873 3.59849 14.4752 3.3106 14.8064 3.28998C15.0599 3.2749 15.2798 3.38209 15.4285 3.59107C15.523 3.72388 15.5445 3.88685 15.5461 4.00005C15.5577 4.90419 16.2991 5.64161 17.2315 5.62231C18.1299 5.59997 18.8485 4.83372 18.8334 3.91451C18.7973 1.69694 16.9232 -0.13821 14.6048 0.00819528C12.608 0.132023 11.0088 1.73124 10.8849 3.72795C10.7817 5.38888 11.6907 6.90668 13.2011 7.59754C13.2154 7.62098 13.2115 7.62387 13.2116 8.01238C13.2116 8.24512 13.0731 8.46035 12.85 8.5741C12.6547 8.67363 12.4717 8.79652 12.3062 8.93933L11.5102 9.62589C11.4098 9.71245 11.2815 9.76019 11.1489 9.76019H7.998C6.23058 9.76019 4.65153 10.8153 3.9752 12.4481L2.17638 16.791C2.05247 17.09 2.19443 17.4327 2.49349 17.5566C2.79255 17.6807 3.1352 17.5384 3.25903 17.2395L5.05785 12.8966C5.55223 11.7031 6.70636 10.9321 7.99808 10.9321H9.6244C9.85182 12.9514 11.2031 14.6127 13.0445 15.2896L10.6143 21.1566C10.4904 21.4556 10.6324 21.7983 10.9314 21.9222L15.1405 23.6657V38.8281H6.0659V15.4498C6.0659 15.1261 5.80363 14.8638 5.47996 14.8638C5.15629 14.8638 4.89403 15.1261 4.89403 15.4498V22.3972L1.67474 21.0637L2.16826 19.8722C2.29216 19.5732 2.15021 19.2305 1.85115 19.1066C1.55248 18.9827 1.20951 19.1248 1.0856 19.4237L0.367794 21.1566C0.243888 21.4556 0.38584 21.7983 0.684902 21.9222L4.89395 23.6657V39.4141C4.89395 39.7377 5.15621 40 5.47988 40H34.5201C34.8437 40 35.106 39.7377 35.106 39.4141V29.7036C35.106 29.38 34.8437 29.1177 34.5201 29.1177C34.1964 29.1177 33.9341 29.38 33.9341 29.7036V38.8281H16.3122V15.4498C16.3122 15.1261 16.0499 14.8638 15.7262 14.8638C15.4026 14.8638 15.1403 15.1261 15.1403 15.4498V22.3972L11.921 21.0637C12.1917 20.4105 13.9774 16.0991 15.304 12.8966C15.5062 12.4083 15.819 11.9908 16.2063 11.6678C16.2299 11.6514 16.2525 11.6331 16.2739 11.6129C16.8228 11.1802 17.5113 10.932 18.2441 10.932H19.87C20.0197 12.2795 20.6828 13.5191 21.7402 14.3973C21.989 14.604 22.3585 14.5698 22.5654 14.3209C22.7721 14.0719 22.7379 13.7025 22.489 13.4957C22.3065 13.3442 22.1393 13.1789 21.9881 13.002C22.693 12.8917 23.3579 12.5865 23.9039 12.1156L24.5508 11.5576H25.6526L26.2996 12.1156C26.845 12.586 27.5089 12.891 28.2129 13.0016C27.3574 14.0024 26.0489 14.5652 24.655 14.4142C24.3325 14.3785 24.0442 14.6118 24.0093 14.9334C23.9745 15.2552 24.2069 15.5442 24.5286 15.5791C27.4467 15.896 30.0173 13.7736 30.3335 10.9319H32.0022C33.2939 10.9319 34.448 11.7031 34.9424 12.8964L38.3253 21.0636L35.1061 22.3971V15.4496C35.106 15.1262 34.8437 14.8638 34.5201 14.8638ZM12.2755 10.5133L13.0714 9.82675C13.1659 9.74527 13.2705 9.67519 13.3823 9.61808C13.9998 9.303 14.3834 8.68769 14.3833 8.01207L14.3832 7.64285C14.3832 7.15996 14.1131 6.72504 13.6947 6.53465C12.6252 6.04848 11.9813 4.97529 12.0542 3.80052C12.1417 2.39264 13.2692 1.26507 14.6773 1.17772C16.3141 1.07491 17.636 2.36819 17.6615 3.93357C17.6659 4.20287 17.4513 4.44451 17.2021 4.45068C16.9469 4.4599 16.7211 4.25388 16.7176 3.9849C16.7027 2.82779 15.757 2.06084 14.7355 2.12014C13.8176 2.17717 13.0538 2.941 12.9967 3.85904C12.9483 4.63958 13.3757 5.35239 14.0856 5.67505C14.84 6.01809 15.3274 6.79043 15.3274 7.64285L15.3273 8.01215C15.3273 8.68761 15.7108 9.30292 16.3285 9.61816C16.5316 9.72183 16.6363 9.82425 16.8324 9.99347C16.4978 10.1076 16.1799 10.2617 15.8852 10.4514C15.798 10.4087 15.7016 10.386 15.603 10.386H14.1077C13.9525 10.386 13.8027 10.4421 13.6883 10.5418L12.8923 11.2284C12.4077 11.6463 11.7885 11.8764 11.1488 11.8764H11.0645C10.9419 11.576 10.8542 11.2592 10.8062 10.9321H11.1489C11.5623 10.9321 11.9624 10.7834 12.2755 10.5133ZM11.7493 13.001C12.4514 12.8898 13.1135 12.5851 13.6576 12.1159L14.3045 11.5578H14.718C14.5213 11.83 14.3539 12.128 14.2213 12.4481L13.4931 14.2059C12.807 13.9627 12.2092 13.5403 11.7493 13.001ZM28.8085 11.8764C28.1688 11.8764 27.5496 11.6463 27.065 11.2284L26.2714 10.5439C26.1546 10.4421 26.0047 10.386 25.8495 10.386H24.3539C24.1988 10.386 24.0489 10.4421 23.9346 10.5418L23.1386 11.2284C22.6541 11.6464 22.0349 11.8764 21.3951 11.8764H21.3054C21.1838 11.5747 21.0982 11.2579 21.0514 10.9321H21.3952C21.8086 10.9321 22.2087 10.7834 22.5218 10.5133L23.3178 9.82691C23.4125 9.74527 23.5171 9.67511 23.6287 9.61808C24.2463 9.303 24.6298 8.68769 24.6297 8.01207L24.6296 7.64285C24.6296 7.15996 24.3595 6.72504 23.9411 6.53465C22.8717 6.04848 22.2277 4.97529 22.3007 3.80052C22.3881 2.39264 23.5157 1.26507 24.9238 1.17772C26.561 1.07491 27.8824 2.36865 27.908 3.93349C27.9124 4.20279 27.6978 4.44451 27.4485 4.45068C27.1922 4.45982 26.9675 4.25287 26.964 3.98505C26.9493 2.82865 26.0036 2.06077 24.982 2.12014C24.0639 2.17717 23.3002 2.94107 23.2432 3.85896C23.1947 4.63951 23.6221 5.35239 24.332 5.67505C25.0864 6.01809 25.5739 6.79043 25.5739 7.64285L25.5738 8.01215C25.5737 8.68761 25.9572 9.30292 26.575 9.61816C26.7957 9.73081 26.8297 9.77847 27.6817 10.5134C27.9949 10.7834 28.3949 10.9321 28.8084 10.9321H29.1521C29.1048 11.261 29.0181 11.5774 28.8971 11.8764H28.8085Z" fill="#28478A"/>
<path d="M27.6201 17.5928C27.2964 17.5928 27.0342 17.855 27.0342 18.1787V20.8732C27.0342 22.5932 28.44 23.9358 30.0936 23.9358C31.7464 23.9358 33.1529 22.5937 33.1529 20.8732V18.1787C33.1529 17.855 32.8907 17.5928 32.567 17.5928H27.6201ZM31.9811 20.8732C31.9811 22.3739 30.2981 23.292 29.0346 22.4357C28.5157 22.0842 28.2061 21.5 28.2061 20.8732V18.7646H31.9811V20.8732Z" fill="#28478A"/>
</svg>
