<svg width="40" height="40" viewBox="0 0 40 40" fill="none" xmlns="http://www.w3.org/2000/svg">
<path d="M35.0614 13.0747H32.178V7.40055C32.178 6.42891 31.7916 5.52328 31.1593 4.86117L29.2962 2.91164C27.7151 1.28258 27.5155 0.822344 26.5738 0.365234C26.1363 0.146875 25.5598 0 24.9786 0H11.3698C9.34257 0 7.6939 1.64945 7.6939 3.67594V23.4992H6.91866C5.74913 23.4992 4.79796 24.4504 4.79796 25.6199C4.79796 26.202 5.03359 26.729 5.41374 27.1123C5.03359 27.4955 4.79796 28.0226 4.79796 28.6046C4.79796 28.823 4.82858 28.9526 4.8396 29.0241C0.23757 29.4922 -1.59571 35.1883 1.77234 38.2798C2.78952 39.2137 4.13968 39.7431 5.60374 39.6834C6.08757 39.6834 16.0487 39.6795 16.0612 39.6795C17.23 39.6795 18.1819 38.7284 18.1819 37.5588C18.1819 36.9768 17.9463 36.4498 17.5662 36.0665C17.9236 35.7059 18.1529 35.2198 18.1788 34.6794H18.9745V35.1043C18.9745 37.8039 21.1706 40 23.8702 40H35.0614C37.761 40 39.9571 37.8039 39.9571 35.1043V17.9704C39.9572 15.2708 37.761 13.0747 35.0614 13.0747ZM30.0589 5.52961C30.0589 5.52961 30.0597 5.52961 30.0605 5.53117C30.0612 5.53117 30.0612 5.53117 30.0612 5.53117C30.062 5.53273 30.0636 5.5343 30.0644 5.53508L30.0651 5.53586C30.0667 5.5382 30.0683 5.53977 30.0698 5.54055C30.0706 5.54133 30.0714 5.54211 30.0722 5.54367C30.073 5.54445 30.0737 5.54445 30.0737 5.54523C30.0745 5.54602 30.0753 5.54602 30.0761 5.54758C30.0776 5.54836 30.0784 5.54992 30.0792 5.5507H26.9303V2.22203C29.3983 4.83055 29.9544 5.41883 30.0589 5.52961ZM6.91866 24.7559H16.0613C16.5373 24.7559 16.9253 25.144 16.9253 25.6199C16.9253 26.0967 16.5373 26.4839 16.0613 26.4839H6.91866C6.44265 26.4839 6.05468 26.0967 6.05468 25.6199C6.0546 25.1439 6.44265 24.7559 6.91866 24.7559ZM6.91866 27.7406H16.0613C16.5373 27.7406 16.9253 28.1287 16.9253 28.6046C16.9253 29.0814 16.5373 29.4686 16.0613 29.4686H9.74624C9.48937 29.3508 9.22312 29.2549 8.95054 29.1811C8.54366 29.0703 8.12265 29.0075 7.69382 28.9965C7.57054 28.9934 7.44718 28.9941 7.3239 28.9996H6.15124C6.08921 28.881 6.0546 28.7467 6.0546 28.6045C6.0546 28.1287 6.44265 27.7406 6.91866 27.7406ZM16.9253 31.5894C16.9253 32.0662 16.5373 32.4534 16.0613 32.4534H12.5448C12.3061 31.8179 11.9463 31.2327 11.4782 30.7254H16.0613C16.5373 30.7254 16.9253 31.1134 16.9253 31.5894ZM3.86163 30.4615C3.47913 30.8244 3.13898 31.2555 2.87194 31.7308H2.13991C2.61827 31.1377 3.21288 30.7159 3.86163 30.4615ZM1.47148 32.9089H2.38655C2.36616 32.9969 2.26241 33.3354 2.2153 33.8507H1.24843C1.28616 33.5271 1.36077 33.2113 1.47148 32.9089ZM1.5728 36.0233C1.43382 35.7075 1.33405 35.3737 1.27749 35.0289H2.23734C2.40937 36.0045 2.41874 35.8363 2.46194 36.0233H1.5728ZM2.35671 37.2014C2.74234 37.2006 2.96624 37.203 3.01882 37.1998C3.25366 37.5705 3.5364 37.9138 3.86398 38.2225C3.29452 37.9987 2.78796 37.657 2.35671 37.2014ZM7.71819 38.5061C5.41921 38.6051 3.4728 36.8245 3.37538 34.5199C3.21749 30.8511 7.59952 28.7382 10.3588 31.2712C13.079 33.7682 11.4232 38.3537 7.71819 38.5061ZM16.0613 38.4228H10.9897C11.5512 37.9476 12.0123 37.3593 12.3398 36.6948H16.0613C16.5373 36.6948 16.9253 37.0829 16.9253 37.5588C16.9253 38.0355 16.5373 38.4228 16.0613 38.4228ZM16.9183 34.6794C16.8664 35.1066 16.5019 35.4381 16.0613 35.4381H12.7734C12.8873 34.893 12.9195 34.3055 12.8496 33.7102H16.0613C16.5907 33.7101 16.9858 34.1838 16.9183 34.6794ZM18.9745 33.4226H17.8403C17.761 33.2993 17.6691 33.1854 17.5662 33.0817C18.3869 32.2538 18.3877 30.9248 17.5662 30.097C17.9463 29.7138 18.1819 29.1867 18.1819 28.6047C18.1819 28.0227 17.9463 27.4956 17.5662 27.1123C18.8873 25.7802 17.9432 23.4993 16.0612 23.4993H8.95054V3.67594C8.95054 2.34227 10.036 1.25672 11.3698 1.25672H25.6737V6.17914C25.6737 6.52633 25.9548 6.8075 26.302 6.8075H30.8466C30.9778 7.31648 30.8969 7.14836 30.9212 13.0746H23.8702C21.1706 13.0746 18.9745 15.2707 18.9745 17.9703V33.4226ZM38.779 35.1043C38.779 37.1543 37.1115 38.8219 35.0614 38.8219H23.8703C21.8211 38.8219 20.1527 37.1544 20.1527 35.1043V17.9704C20.1527 15.9204 21.821 14.2528 23.8703 14.2528H35.0615C37.1115 14.2528 38.7791 15.9203 38.7791 17.9704V35.1043H38.779Z" fill="#28478A"/>
<path d="M35.0197 15.5889H23.9118C22.8196 15.5889 21.9341 16.4743 21.9341 17.5666V19.7227C21.9341 20.815 22.8196 21.7004 23.9118 21.7004H26.049C26.3743 21.7004 26.6381 21.4367 26.6381 21.1114C26.6381 20.7861 26.3743 20.5223 26.049 20.5223H23.9118C23.4721 20.5223 23.1122 20.1625 23.1122 19.7227V17.5666C23.1122 17.1268 23.4721 16.767 23.9118 16.767H35.0197C35.4611 16.767 35.8193 17.126 35.8193 17.5666V19.7227C35.8193 20.1633 35.4611 20.5223 35.0197 20.5223H28.5892C28.2639 20.5223 28.0002 20.7861 28.0002 21.1114C28.0002 21.4367 28.2639 21.7004 28.5892 21.7004H35.0197C36.1107 21.7004 36.9974 20.8129 36.9974 19.7227V17.5666C36.9974 16.4764 36.1106 15.5889 35.0197 15.5889Z" fill="#28478A"/>
<path d="M25.1803 28.0022H23.1672C22.4878 28.0022 21.9341 28.5552 21.9341 29.2353V31.2477C21.9341 31.9279 22.4878 32.4808 23.1672 32.4808H25.1803C25.8606 32.4808 26.4135 31.9278 26.4135 31.2477V29.2353C26.4135 28.5552 25.8605 28.0022 25.1803 28.0022ZM25.2353 31.2477C25.2353 31.2783 25.2101 31.3027 25.1803 31.3027H23.1671C23.1373 31.3027 23.1121 31.2783 23.1121 31.2477V29.2353C23.1121 29.2047 23.1373 29.1803 23.1671 29.1803H25.1803C25.2101 29.1803 25.2353 29.2047 25.2353 29.2353V31.2477Z" fill="#28478A"/>
<path d="M35.828 22.7397H33.8156C33.1354 22.7397 32.5825 23.2927 32.5825 23.9729V25.9852C32.5825 26.6654 33.1355 27.2183 33.8156 27.2183H35.828C36.5082 27.2183 37.0611 26.6654 37.0611 25.9852V23.9729C37.0611 23.2927 36.5081 22.7397 35.828 22.7397ZM35.883 25.9852C35.883 26.0158 35.8586 26.0402 35.828 26.0402H33.8156C33.7858 26.0402 33.7606 26.0158 33.7606 25.9852C33.785 23.9941 33.7096 23.9179 33.8156 23.9179H35.828C35.8586 23.9179 35.883 23.9422 35.883 23.9729V25.9852Z" fill="#28478A"/>
<path d="M25.1803 22.7397H23.1672C22.4878 22.7397 21.9341 23.2927 21.9341 23.9729V25.9852C21.9341 26.6654 22.4878 27.2183 23.1672 27.2183H25.1803C25.8606 27.2183 26.4135 26.6654 26.4135 25.9852V23.9729C26.4135 23.2927 25.8605 22.7397 25.1803 22.7397ZM25.2353 25.9852C25.2353 26.0158 25.2101 26.0402 25.1803 26.0402H23.1671C23.1373 26.0402 23.1121 26.0158 23.1121 25.9852V23.9729C23.1121 23.9422 23.1373 23.9179 23.1671 23.9179H25.1803C25.2101 23.9179 25.2353 23.9422 25.2353 23.9729V25.9852Z" fill="#28478A"/>
<path d="M26.1034 33.4225C25.8771 33.1681 25.5473 33.0071 25.1805 33.0071H23.1674C22.8006 33.0071 22.4706 33.1681 22.2452 33.4225C21.8172 33.9025 21.9625 34.4256 21.9342 34.6793V36.2525C21.9342 36.9328 22.488 37.4857 23.1674 37.4857H25.1805C25.8607 37.4857 26.4136 36.9327 26.4136 36.2525V34.6793C26.3853 34.4311 26.5291 33.9025 26.1034 33.4225ZM25.1805 36.3075C23.1917 36.2832 23.1124 36.3586 23.1124 36.2525C23.1124 34.1216 23.0888 34.1852 23.1674 34.1852H25.1805C25.2771 34.1852 25.2174 34.3195 25.2355 34.6793C25.2354 34.6793 25.2865 36.3075 25.1805 36.3075Z" fill="#28478A"/>
<path d="M35.5154 28.0022H34.1283C33.2761 28.0022 32.5825 28.6958 32.5825 29.548V35.7978C32.5825 36.7286 33.3397 37.4858 34.2697 37.4858H35.3741C36.3049 37.4858 37.0613 36.7286 37.0613 35.7978V29.548C37.0612 28.6958 36.3685 28.0022 35.5154 28.0022ZM35.3741 36.3076H34.2697C33.9893 36.3076 33.7607 36.079 33.7607 35.7978V29.548C33.7607 29.3453 33.9256 29.1804 34.1283 29.1804H35.5154C35.7181 29.1804 35.883 29.3453 35.883 29.548V35.7978C35.8831 36.079 35.6553 36.3076 35.3741 36.3076Z" fill="#28478A"/>
<path d="M15.2067 17.1115C14.4885 16.8476 13.9696 16.657 13.9696 15.9915C13.9696 15.385 14.3724 15.0775 15.1667 15.0775C16.0099 15.0775 16.2369 15.4487 16.5339 15.4487C16.8572 15.4487 17.036 15.1057 17.036 14.8684C17.036 14.3776 16.2355 14.1343 15.5199 14.07V13.6275C15.5199 13.3197 15.2695 13.0693 14.9617 13.0693C14.6538 13.0693 14.4035 13.3197 14.4035 13.6275V14.1406C13.4249 14.3729 12.8873 15.0488 12.8873 16.0502C12.8873 17.4213 13.8967 17.8006 14.7079 18.1055C15.5021 18.4039 16.1296 18.6397 16.1296 19.5465C16.1296 20.2955 15.7137 20.6753 14.8933 20.6753C13.6927 20.6753 13.6814 19.8646 13.2235 19.8646C12.9399 19.8646 12.7114 20.1821 12.7114 20.445C12.7114 20.9092 13.4028 21.5193 14.4035 21.6777V22.1053C14.4035 22.4131 14.6538 22.6635 14.9617 22.6635C15.2695 22.6635 15.5199 22.4131 15.5199 22.1053V21.6662C16.5963 21.4636 17.2119 20.6732 17.2119 19.4879C17.2118 17.8482 16.1001 17.4398 15.2067 17.1115Z" fill="#28478A"/>
<path d="M31.3274 33.3527C31.1059 33.139 30.8043 33.0071 30.4728 33.0071H28.4597C28.0929 33.0071 27.763 33.1681 27.5368 33.4225C27.1103 33.9033 27.2548 34.4256 27.2266 34.6793V36.2525C27.2266 36.9328 27.7795 37.4857 28.4597 37.4857H30.4728C31.1523 37.4857 31.7051 36.9327 31.7051 36.2525V34.2394C31.7051 33.8915 31.5598 33.5765 31.3274 33.3527ZM30.4728 36.3075C28.4841 36.2832 28.4047 36.3586 28.4047 36.2525V34.2394C28.4047 34.2096 28.4298 34.1852 28.4597 34.1852H30.4728C30.5026 34.1852 30.527 34.2096 30.527 34.2394C30.5034 36.2329 30.5773 36.3075 30.4728 36.3075Z" fill="#28478A"/>
<path d="M30.4728 22.7397H28.4597C27.7795 22.7397 27.2266 23.2927 27.2266 23.9729V25.9852C27.2266 26.6654 27.7795 27.2183 28.4597 27.2183H30.4728C30.6315 27.2183 30.7823 27.1885 30.9213 27.1335C31.38 26.9537 31.7052 26.5067 31.7052 25.9851V23.9728C31.7052 23.2903 31.1491 22.7397 30.4728 22.7397ZM30.4728 26.0402H28.4597C28.4298 26.0402 28.4047 26.0158 28.4047 25.9852V23.9729C28.4047 23.8669 28.4777 23.9415 30.4728 23.9179C30.5027 23.9179 30.527 23.9422 30.527 23.9729V25.9852C30.527 26.0158 30.5027 26.0402 30.4728 26.0402Z" fill="#28478A"/>
<path d="M30.9213 28.087C30.7823 28.032 30.6315 28.0022 30.4728 28.0022H28.4597C27.7795 28.0022 27.2266 28.5552 27.2266 29.2353V31.2477C27.2266 31.9279 27.7795 32.4808 28.4597 32.4808H30.4728C31.1523 32.4808 31.7052 31.9278 31.7052 31.2477V29.2353C31.7052 28.7138 31.38 28.2669 30.9213 28.087ZM30.527 31.2477C30.527 31.2783 30.5027 31.3027 30.4728 31.3027H28.4597C28.4298 31.3027 28.4047 31.2783 28.4047 31.2477V29.2353C28.4047 29.2047 28.4298 29.1803 28.4597 29.1803H30.4728C30.5027 29.1803 30.527 29.2047 30.527 29.2353V31.2477Z" fill="#28478A"/>
<path d="M27.0725 8.05005H25.5927C25.2676 8.05005 25.0037 8.31396 25.0037 8.63911C25.0037 8.96505 25.2676 9.22817 25.5927 9.22817H27.0725C27.3976 9.22817 27.6616 8.96505 27.6616 8.63911C27.6616 8.31396 27.3976 8.05005 27.0725 8.05005Z" fill="#28478A"/>
<path d="M23.2362 8.05005H12.7897C12.4646 8.05005 12.2007 8.31396 12.2007 8.63911C12.2007 8.96505 12.4646 9.22817 12.7897 9.22817H23.2363C23.5615 9.22817 23.8254 8.96505 23.8254 8.63911C23.8254 8.31396 23.5615 8.05005 23.2362 8.05005Z" fill="#28478A"/>
<path d="M14.6622 10.9744H12.7897C12.4646 10.9744 12.2007 11.2383 12.2007 11.5634C12.2007 11.8886 12.4646 12.1525 12.7897 12.1525H14.6622C14.9874 12.1525 15.2513 11.8886 15.2513 11.5634C15.2513 11.2383 14.9874 10.9744 14.6622 10.9744Z" fill="#28478A"/>
<path d="M27.0726 10.9744H17.0188C16.6936 10.9744 16.4297 11.2383 16.4297 11.5634C16.4297 11.8886 16.6936 12.1525 17.0188 12.1525H27.0726C27.3977 12.1525 27.6616 11.8886 27.6616 11.5634C27.6617 11.2383 27.3977 10.9744 27.0726 10.9744Z" fill="#28478A"/>
<path d="M7.20582 33.2155C7.20582 33.0675 7.26035 33.025 7.31137 32.9967C7.46965 32.9091 7.83277 32.8833 8.16543 33.0544C8.25379 33.0998 8.35395 33.1513 8.48426 33.1513C9.06527 33.1513 9.5248 32.0717 8.13691 31.833V31.7959C8.13691 31.4668 7.8691 31.199 7.53996 31.199C7.21082 31.199 6.94301 31.4668 6.94301 31.7959V31.9092C6.36145 32.1201 6.03246 32.5998 6.03246 33.2508C6.03246 34.2555 6.76238 34.5298 7.29551 34.73C7.80387 34.921 7.97965 35.0046 7.97965 35.3504C7.97965 35.5666 7.92145 35.7666 7.49887 35.7666C6.88309 35.7666 6.95684 35.2799 6.49598 35.2799C6.17027 35.2799 5.92676 35.602 5.92676 35.8901C5.92676 36.2982 6.35113 36.6855 6.94301 36.8426V36.8873C6.94301 37.2164 7.21082 37.4842 7.53996 37.4842C7.8691 37.4842 8.13691 37.2165 8.13691 36.8873V36.8269C8.77738 36.6211 9.15309 36.0696 9.15309 35.3152C9.15309 33.5251 7.20582 33.794 7.20582 33.2155Z" fill="#28478A"/>
</svg>
