<svg width="40" height="40" viewBox="0 0 40 40" fill="none" xmlns="http://www.w3.org/2000/svg">
<path d="M36.8737 32.5788C36.8746 32.5523 36.8751 32.526 36.8751 32.5C36.8743 31.8372 36.6107 31.2017 36.142 30.7331C35.6734 30.2644 35.0379 30.0007 34.3751 30V18.4375L36.6251 16.75C36.7032 16.6914 36.7666 16.6153 36.81 16.5278C36.8534 16.4403 36.8757 16.3438 36.8751 16.2461C36.8745 16.1484 36.851 16.0523 36.8065 15.9653C36.762 15.8783 36.6977 15.803 36.6188 15.7454L31.2501 11.822V5C31.4158 5 31.5748 4.93415 31.692 4.81694C31.8092 4.69973 31.8751 4.54076 31.8751 4.375V1.875C31.8751 1.70924 31.8092 1.55027 31.692 1.43306C31.5748 1.31585 31.4158 1.25 31.2501 1.25H25.0001C24.8343 1.25 24.6754 1.31585 24.5581 1.43306C24.4409 1.55027 24.3751 1.70924 24.3751 1.875V4.375C24.3751 4.54076 24.4409 4.69973 24.5581 4.81694C24.6754 4.93415 24.8343 5 25.0001 5V7.25477L20.3688 3.87039C20.2618 3.79217 20.1327 3.75002 20.0001 3.75002C19.8675 3.75002 19.7384 3.79217 19.6313 3.87039L3.38134 15.7454C3.30247 15.803 3.23821 15.8783 3.19371 15.9653C3.14922 16.0523 3.12572 16.1484 3.12511 16.2461C3.12451 16.3438 3.1468 16.4403 3.19022 16.5278C3.23363 16.6153 3.29695 16.6914 3.37509 16.75L5.62509 18.4375V30C4.96228 30.0007 4.32683 30.2644 3.85815 30.7331C3.38947 31.2017 3.12583 31.8372 3.12509 32.5C3.12509 32.526 3.12556 32.5523 3.1265 32.5788C2.53688 32.7303 2.02284 33.0919 1.68083 33.5955C1.33881 34.0992 1.19233 34.7103 1.26886 35.3143C1.34539 35.9182 1.63968 36.4735 2.0965 36.8759C2.55333 37.2784 3.1413 37.5003 3.75009 37.5H36.2501C36.8589 37.5003 37.4469 37.2784 37.9037 36.8759C38.3605 36.4735 38.6548 35.9182 38.7313 35.3143C38.8078 34.7103 38.6614 34.0992 38.3194 33.5955C37.9773 33.0919 37.4633 32.7303 36.8737 32.5788ZM25.6251 2.5H30.6251V3.75H25.6251V2.5ZM26.2501 8.125V5H30.0001V10.9086L26.1909 8.125H26.2501ZM20.0001 5.14906L35.1997 16.2566L33.7444 17.348L20.3677 7.61953C20.2609 7.54182 20.1322 7.49996 20.0001 7.49996C19.868 7.49996 19.7393 7.54182 19.6324 7.61953L6.25579 17.348L4.80048 16.2566L20.0001 5.14906ZM2.50009 35C2.50044 34.6718 2.62968 34.3569 2.85998 34.1231C3.09028 33.8893 3.4032 33.7553 3.73134 33.75H3.73282C3.76478 33.7545 3.79673 33.7583 3.82931 33.7604C3.93288 33.7669 4.03645 33.7476 4.13067 33.7041C4.22489 33.6606 4.30679 33.5943 4.36899 33.5112C4.43119 33.4281 4.47172 33.3309 4.48693 33.2282C4.50214 33.1256 4.49154 33.0207 4.45611 32.9232C4.40438 32.788 4.37696 32.6447 4.37509 32.5C4.37548 32.1686 4.50731 31.8509 4.74164 31.6166C4.97598 31.3822 5.29369 31.2504 5.62509 31.25V36.25H3.75009C3.41869 36.2496 3.10098 36.1178 2.86664 35.8834C2.63231 35.6491 2.50048 35.3314 2.50009 35ZM29.3751 36.25H21.8751V22.5H29.3751V36.25ZM30.6251 36.25V21.875C30.6251 21.7092 30.5592 21.5503 30.442 21.4331C30.3248 21.3158 30.1658 21.25 30.0001 21.25H21.2501C21.0843 21.25 20.9254 21.3158 20.8081 21.4331C20.6909 21.5503 20.6251 21.7092 20.6251 21.875V36.25H6.87509V18.4433L20.0001 8.89781L33.1251 18.4433V36.25H30.6251ZM36.2501 36.25H34.3751V31.25C34.7065 31.2504 35.0242 31.3822 35.2585 31.6166C35.4929 31.8509 35.6247 32.1686 35.6251 32.5C35.6233 32.6448 35.5958 32.7882 35.5441 32.9235C35.5086 33.0211 35.498 33.1259 35.5133 33.2285C35.5285 33.3312 35.569 33.4285 35.6312 33.5115C35.6934 33.5946 35.7753 33.6609 35.8695 33.7044C35.9637 33.7479 36.0673 33.7672 36.1709 33.7607C36.2034 33.7586 36.2354 33.7548 36.2674 33.7503H36.2688C36.6004 33.7528 36.9173 33.8869 37.15 34.1231C37.3826 34.3592 37.512 34.6782 37.5095 35.0097C37.507 35.3412 37.3729 35.6582 37.1367 35.8908C36.9005 36.1235 36.5816 36.2528 36.2501 36.2503V36.25Z" fill="#28478A"/>
<path d="M17.5 21.25H10C9.83424 21.25 9.67527 21.3158 9.55806 21.4331C9.44085 21.5503 9.375 21.7092 9.375 21.875V30.625C9.375 30.7908 9.44085 30.9497 9.55806 31.0669C9.67527 31.1842 9.83424 31.25 10 31.25H17.5C17.6658 31.25 17.8247 31.1842 17.9419 31.0669C18.0592 30.9497 18.125 30.7908 18.125 30.625V21.875C18.125 21.7092 18.0592 21.5503 17.9419 21.4331C17.8247 21.3158 17.6658 21.25 17.5 21.25ZM16.875 25.625H14.375V22.5H16.875V25.625ZM13.125 22.5V25.625H10.625V22.5H13.125ZM10.625 26.875H13.125V30H10.625V26.875ZM14.375 30V26.875H16.875V30H14.375Z" fill="#28478A"/>
<path d="M24.3274 28.9893C24.4595 28.6704 24.308 28.3048 23.9891 28.1727C23.6702 28.0406 23.3046 28.1921 23.1725 28.511C23.0404 28.8299 23.1919 29.1955 23.5108 29.3276C23.8297 29.4596 24.1953 29.3082 24.3274 28.9893Z" fill="#28478A"/>
</svg>
