<svg width="37" height="38" viewBox="0 0 37 38" fill="none" xmlns="http://www.w3.org/2000/svg">
<path d="M26.75 29H28.9912C29.3536 29.001 29.7126 28.9301 30.0475 28.7914C30.3823 28.6527 30.6864 28.4489 30.942 28.192C31.0592 28.0748 31.125 27.9158 31.125 27.75C31.125 27.5843 31.0592 27.4253 30.942 27.3081C30.8247 27.1908 30.6658 27.125 30.5 27.125C30.3342 27.125 30.1753 27.1908 30.058 27.3081C29.9183 27.4486 29.752 27.56 29.5689 27.6359C29.3857 27.7118 29.1894 27.7505 28.9912 27.75H26.75C26.5842 27.75 26.4253 27.8159 26.3081 27.9331C26.1908 28.0503 26.125 28.2093 26.125 28.375C26.125 28.5408 26.1908 28.6997 26.3081 28.817C26.4253 28.9342 26.5842 29 26.75 29Z" fill="#28478A"/>
<path d="M28.625 19C28.1305 19 27.6472 19.1466 27.2361 19.4213C26.825 19.696 26.5045 20.0865 26.3153 20.5433C26.1261 21.0001 26.0766 21.5028 26.173 21.9877C26.2695 22.4727 26.5076 22.9181 26.8572 23.2678C27.2069 23.6174 27.6523 23.8555 28.1373 23.952C28.6222 24.0484 29.1249 23.9989 29.5817 23.8097C30.0385 23.6205 30.429 23.3 30.7037 22.8889C30.9784 22.4778 31.125 21.9945 31.125 21.5C31.1243 20.8372 30.8606 20.2017 30.3919 19.7331C29.9233 19.2644 29.2878 19.0007 28.625 19ZM28.625 22.75C28.3778 22.75 28.1361 22.6767 27.9305 22.5393C27.725 22.402 27.5648 22.2068 27.4702 21.9784C27.3755 21.7499 27.3508 21.4986 27.399 21.2561C27.4473 21.0137 27.5663 20.7909 27.7411 20.6161C27.9159 20.4413 28.1387 20.3222 28.3811 20.274C28.6236 20.2258 28.8749 20.2505 29.1034 20.3452C29.3318 20.4398 29.527 20.6 29.6643 20.8055C29.8017 21.0111 29.875 21.2528 29.875 21.5C29.8746 21.8314 29.7428 22.1491 29.5085 22.3835C29.2741 22.6178 28.9564 22.7496 28.625 22.75Z" fill="#28478A"/>
<path d="M34.875 15.875C34.5042 15.875 34.1416 15.985 33.8333 16.191C33.525 16.397 33.2846 16.6899 33.1427 17.0325C33.0008 17.3751 32.9637 17.7521 33.036 18.1158C33.1084 18.4795 33.287 18.8136 33.5492 19.0758C33.8114 19.338 34.1455 19.5166 34.5092 19.589C34.8729 19.6613 35.2499 19.6242 35.5925 19.4823C35.9351 19.3404 36.228 19.1 36.434 18.7917C36.64 18.4834 36.75 18.1208 36.75 17.75C36.7494 17.2529 36.5517 16.7763 36.2002 16.4248C35.8487 16.0733 35.3721 15.8756 34.875 15.875ZM34.875 18.375C34.7514 18.375 34.6306 18.3383 34.5278 18.2697C34.425 18.201 34.3449 18.1034 34.2976 17.9892C34.2503 17.875 34.2379 17.7493 34.262 17.6281C34.2861 17.5068 34.3457 17.3955 34.4331 17.3081C34.5205 17.2206 34.6318 17.1611 34.7531 17.137C34.8743 17.1129 35 17.1253 35.1142 17.1726C35.2284 17.2199 35.326 17.3 35.3947 17.4028C35.4633 17.5055 35.5 17.6264 35.5 17.75C35.4998 17.9157 35.4339 18.0746 35.3167 18.1917C35.1996 18.3089 35.0407 18.3748 34.875 18.375Z" fill="#28478A"/>
<path d="M28.625 10.25C28.1305 10.25 27.6472 10.3966 27.2361 10.6713C26.825 10.946 26.5045 11.3365 26.3153 11.7933C26.1261 12.2501 26.0766 12.7528 26.173 13.2377C26.2695 13.7227 26.5076 14.1681 26.8572 14.5178C27.2069 14.8674 27.6523 15.1055 28.1373 15.202C28.6222 15.2984 29.1249 15.2489 29.5817 15.0597C30.0385 14.8705 30.429 14.55 30.7037 14.1389C30.9784 13.7278 31.125 13.2445 31.125 12.75C31.1243 12.0872 30.8606 11.4517 30.3919 10.9831C29.9233 10.5144 29.2878 10.2507 28.625 10.25ZM28.625 14C28.3778 14 28.1361 13.9267 27.9305 13.7893C27.725 13.652 27.5648 13.4568 27.4702 13.2284C27.3755 12.9999 27.3508 12.7486 27.399 12.5061C27.4473 12.2637 27.5663 12.0409 27.7411 11.8661C27.9159 11.6913 28.1387 11.5722 28.3811 11.524C28.6236 11.4758 28.8749 11.5005 29.1034 11.5952C29.3318 11.6898 29.527 11.85 29.6643 12.0555C29.8017 12.2611 29.875 12.5028 29.875 12.75C29.8746 13.0814 29.7428 13.3991 29.5085 13.6334C29.2741 13.8678 28.9564 13.9996 28.625 14Z" fill="#28478A"/>
<path d="M3.46875 37.75H10.0312C10.4492 37.7502 10.8624 37.6616 11.2435 37.4902C11.3013 37.5706 11.3773 37.6361 11.4654 37.6813C11.5534 37.7264 11.651 37.75 11.75 37.75H33.625C33.7644 37.75 33.8998 37.7034 34.0096 37.6176C34.1195 37.5318 34.1975 37.4118 34.2313 37.2766L34.738 35.25H35.5C35.6658 35.25 35.8247 35.1842 35.9419 35.0669C36.0592 34.9497 36.125 34.7908 36.125 34.625V32.125C36.125 31.9592 36.0592 31.8003 35.9419 31.6831C35.8247 31.5658 35.6658 31.5 35.5 31.5H33.9171C34.4006 30.961 34.7176 30.2934 34.8298 29.578C34.942 28.8627 34.8445 28.1301 34.5491 27.469C34.2538 26.8079 33.7732 26.2464 33.1655 25.8526C32.5579 25.4588 31.8491 25.2495 31.125 25.25H24.875V13.2969C24.8736 12.2525 24.4923 11.2443 23.8023 10.4603C23.1123 9.67636 22.1607 9.17011 21.125 9.03602V7.125C21.125 6.95924 21.0592 6.80027 20.9419 6.68306C20.8247 6.56585 20.6658 6.5 20.5 6.5V1.5C20.5 1.33424 20.4342 1.17527 20.3169 1.05806C20.1997 0.940848 20.0408 0.875 19.875 0.875H13.7812C13.4084 0.875434 13.051 1.02373 12.7874 1.28736C12.5237 1.55099 12.3754 1.90842 12.375 2.28125V3.375C12.375 3.54076 12.4408 3.69973 12.5581 3.81694C12.6753 3.93415 12.8342 4 13 4H15.5V6.5C15.3342 6.5 15.1753 6.56585 15.0581 6.68306C14.9408 6.80027 14.875 6.95924 14.875 7.125V9.03602C13.8393 9.17011 12.8877 9.67636 12.1977 10.4603C11.5077 11.2443 11.1264 12.2525 11.125 13.2969V19.8347C10.777 19.696 10.4058 19.6249 10.0312 19.625C9.82412 19.6248 9.62554 19.5424 9.47907 19.3959C9.33261 19.2495 9.25023 19.0509 9.25 18.8438V18.375C9.41576 18.375 9.57473 18.3092 9.69194 18.1919C9.80915 18.0747 9.875 17.9158 9.875 17.75V15.25C9.875 15.0842 9.80915 14.9253 9.69194 14.8081C9.57473 14.6908 9.41576 14.625 9.25 14.625H4.25C4.08424 14.625 3.92527 14.6908 3.80806 14.8081C3.69085 14.9253 3.625 15.0842 3.625 15.25V17.75C3.625 17.9158 3.69085 18.0747 3.80806 18.1919C3.92527 18.3092 4.08424 18.375 4.25 18.375V18.8438C4.24977 19.0509 4.16739 19.2495 4.02093 19.3959C3.87446 19.5424 3.67588 19.6248 3.46875 19.625C2.68166 19.6259 1.92706 19.939 1.37051 20.4955C0.813953 21.0521 0.500889 21.8067 0.5 22.5938V34.7812C0.500889 35.5683 0.813953 36.3229 1.37051 36.8795C1.92706 37.436 2.68166 37.7491 3.46875 37.75ZM12.375 20.7748V19H18.625V27.75H13V22.5938C13.0005 21.9347 12.7805 21.2944 12.375 20.7748ZM33.137 36.5H24.875V35.25H33.4495L33.137 36.5ZM34.875 34H24.875V32.75H34.875V34ZM31.125 26.5C31.788 26.5 32.4239 26.7634 32.8928 27.2322C33.3616 27.7011 33.625 28.337 33.625 29C33.625 29.663 33.3616 30.2989 32.8928 30.7678C32.4239 31.2366 31.788 31.5 31.125 31.5H24.875V26.5H31.125ZM16.125 7.75H19.875V9H16.125V7.75ZM13.625 2.75V2.28125C13.625 2.23981 13.6415 2.20007 13.6708 2.17076C13.7001 2.14146 13.7398 2.125 13.7812 2.125H15.5V2.75H13.625ZM16.75 2.125H19.25V6.5H16.75V2.125ZM15.4219 10.25H20.5781C21.3859 10.2509 22.1604 10.5722 22.7316 11.1434C23.3028 11.7146 23.6241 12.4891 23.625 13.2969V36.5H12.4495C12.808 35.9986 13.0005 35.3976 13 34.7812V29H19.25C19.4158 29 19.5747 28.9342 19.6919 28.8169C19.8092 28.6997 19.875 28.5408 19.875 28.375V18.375C19.875 18.2092 19.8092 18.0503 19.6919 17.9331C19.5747 17.8158 19.4158 17.75 19.25 17.75H12.375V13.2969C12.3759 12.4891 12.6972 11.7146 13.2684 11.1434C13.8396 10.5722 14.6141 10.2509 15.4219 10.25ZM4.875 15.875H8.625V17.125H4.875V15.875ZM3.46875 20.875C4.00729 20.8744 4.52359 20.6602 4.9044 20.2794C5.2852 19.8986 5.4994 19.3823 5.5 18.8438V18.375H8V18.8438C8.0006 19.3823 8.2148 19.8986 8.5956 20.2794C8.97641 20.6602 9.49271 20.8744 10.0312 20.875C10.4869 20.8755 10.9238 21.0568 11.246 21.379C11.5682 21.7012 11.7495 22.1381 11.75 22.5938V34.7812C11.7495 35.2369 11.5682 35.6738 11.246 35.996C10.9238 36.3182 10.4869 36.4995 10.0312 36.5H3.46875C3.01307 36.4995 2.5762 36.3182 2.25398 35.996C1.93176 35.6738 1.75052 35.2369 1.75 34.7812V33.375H7.375C7.54076 33.375 7.69973 33.3092 7.81694 33.1919C7.93415 33.0747 8 32.9158 8 32.75V24C8 23.8342 7.93415 23.6753 7.81694 23.5581C7.69973 23.4408 7.54076 23.375 7.375 23.375H1.75V22.5938C1.75052 22.1381 1.93176 21.7012 2.25398 21.379C2.5762 21.0568 3.01307 20.8755 3.46875 20.875ZM1.75 24.625H6.75V32.125H1.75V24.625Z" fill="#28478A"/>
<path d="M21.75 29.625C21.9158 29.625 22.0747 29.5592 22.1919 29.4419C22.3092 29.3247 22.375 29.1658 22.375 29V28.375C22.375 28.2092 22.3092 28.0503 22.1919 27.9331C22.0747 27.8158 21.9158 27.75 21.75 27.75C21.5842 27.75 21.4253 27.8158 21.3081 27.9331C21.1908 28.0503 21.125 28.2092 21.125 28.375V29C21.125 29.1658 21.1908 29.3247 21.3081 29.4419C21.4253 29.5592 21.5842 29.625 21.75 29.625Z" fill="#28478A"/>
<path d="M21.75 34C21.9158 34 22.0747 33.9342 22.1919 33.8169C22.3092 33.6997 22.375 33.5408 22.375 33.375V31.5C22.375 31.3342 22.3092 31.1753 22.1919 31.0581C22.0747 30.9408 21.9158 30.875 21.75 30.875C21.5842 30.875 21.4253 30.9408 21.3081 31.0581C21.1908 31.1753 21.125 31.3342 21.125 31.5V33.375C21.125 33.5408 21.1908 33.6997 21.3081 33.8169C21.4253 33.9342 21.5842 34 21.75 34Z" fill="#28478A"/>
</svg>
