<svg width="40" height="40" viewBox="0 0 40 40" fill="none" xmlns="http://www.w3.org/2000/svg">
<g clip-path="url(#clip0_23_37)">
<path d="M9.82007 9.84326C9.38882 9.84326 9.03882 10.1933 9.03882 10.6245C9.03882 11.0558 9.38882 11.4058 9.82007 11.4058C10.2513 11.4058 10.6013 11.0558 10.6013 10.6245C10.6013 10.1933 10.2513 9.84326 9.82007 9.84326Z" fill="#FAD900"/>
<path d="M16.8509 24.452H14.5073V22.1084C14.5073 21.677 14.1575 21.3271 13.7261 21.3271C13.2947 21.3271 12.9449 21.677 12.9449 22.1084V24.452H10.6013C10.1699 24.452 9.82007 24.8018 9.82007 25.2332C9.82007 25.6645 10.1699 26.0144 10.6013 26.0144H12.9449V28.358C12.9449 28.7894 13.2948 29.1393 13.7261 29.1393C14.1574 29.1393 14.5073 28.7894 14.5073 28.358V26.0144H16.8509C17.2823 26.0144 17.6322 25.6646 17.6322 25.2332C17.6322 24.8018 17.2824 24.452 16.8509 24.452Z" fill="#FAD900"/>
<path d="M37.9357 25.155C36.2088 22.1639 32.3903 21.1402 29.3987 22.8676L26.2254 24.6996V17.9155C26.2254 17.0769 25.948 16.2446 25.4442 15.572L21.5382 10.3641V8.14641C22.4474 7.82391 23.1006 6.95563 23.1006 5.93711V2.34359C23.1005 1.05133 22.0491 0 20.7569 0H6.69508C5.40281 0 4.35141 1.05133 4.35141 2.34359V5.93719C4.35141 6.95555 5.00461 7.82398 5.91383 8.14648V10.3641L2.0075 15.5723C1.50391 16.2447 1.22656 17.0769 1.22656 17.9155V33.0452C1.22656 35.1991 2.97883 36.9513 5.13258 36.9513H17.6874C19.4391 39.8874 23.2161 40.8701 26.1768 39.1605L35.6484 33.692C38.6136 31.9797 39.6713 28.1624 37.9357 25.155ZM5.91383 2.34359C5.91383 1.91281 6.2643 1.56234 6.695 1.56234H20.7568C21.1876 1.56234 21.538 1.91281 21.538 2.34359V5.93719C21.538 6.36797 21.1876 6.71836 20.7568 6.71836H6.69508C6.2643 6.71836 5.91391 6.36789 5.91391 5.93719V2.34359H5.91383ZM3.25781 16.5093L7.32 11.0932C7.42141 10.958 7.47625 10.7935 7.47625 10.6245V8.28086H19.9756V9.84328H12.9448C12.5134 9.84328 12.1635 10.1931 12.1635 10.6245C12.1635 11.0559 12.5134 11.4058 12.9448 11.4058H20.3662L24.1938 16.5091C24.444 16.843 24.5994 17.2427 24.6463 17.6555H2.80562C2.8525 17.2426 3.00789 16.843 3.25781 16.5093ZM5.13266 35.3888C3.84039 35.3888 2.78906 34.3375 2.78906 33.0452V32.2562H16.9824C16.7347 33.2691 16.7363 34.351 17.02 35.3889H5.13266V35.3888ZM17.5952 30.7016H2.78898V19.2177H24.6629V25.6016L19.927 28.3361C18.9396 28.9065 18.1415 29.7184 17.5952 30.7016ZM25.3957 37.8074C23.1538 39.102 20.2889 38.3364 18.9934 36.0929C17.6918 33.8277 18.4806 30.9759 20.7084 29.6891L24.9488 27.2408L29.6361 35.3591L25.3957 37.8074ZM34.8671 32.339L30.9892 34.578L26.3019 26.4595L30.1798 24.2207C32.4233 22.9255 35.2871 23.6925 36.5826 25.9361C37.8838 28.1909 37.0925 31.0539 34.8671 32.339Z" fill="#FAD900"/>
</g>
<defs>
<clipPath id="clip0_23_37">
<rect width="40" height="40" fill="white"/>
</clipPath>
</defs>
</svg>
